<?xml version="1.0" standalone="no"?>
<!DOCTYPE svg PUBLIC "-//W3C//DTD SVG 1.1//EN" "http://www.w3.org/Graphics/SVG/1.1/DTD/svg11.dtd" >
<svg xmlns="http://www.w3.org/2000/svg">
<metadata>
Created by FontForge 20120731 at Tue Mar  7 15:51:30 2017
 By admin
</metadata>
<defs>
<font id="iconfont" horiz-adv-x="1024" >
  <font-face 
    font-family="iconfont"
    font-weight="500"
    font-stretch="normal"
    units-per-em="1024"
    panose-1="2 0 6 3 0 0 0 0 0 0"
    ascent="896"
    descent="-128"
    x-height="792"
    bbox="-18 -212.182 1185 914"
    underline-thickness="0"
    underline-position="0"
    unicode-range="U+0078-E7B6"
  />
<missing-glyph 
 />
    <glyph glyph-name=".notdef" 
 />
    <glyph glyph-name=".notdef" 
 />
    <glyph glyph-name=".null" horiz-adv-x="0" 
 />
    <glyph glyph-name="nonmarkingreturn" horiz-adv-x="341" 
 />
    <glyph glyph-name="x" unicode="x" horiz-adv-x="1001" 
d="M281 543q-27 -1 -53 -1h-83q-18 0 -36.5 -6t-32.5 -18.5t-23 -32t-9 -45.5v-76h912v41q0 16 -0.5 30t-0.5 18q0 13 -5 29t-17 29.5t-31.5 22.5t-49.5 9h-133v-97h-438v97zM955 310v-52q0 -23 0.5 -52t0.5 -58t-10.5 -47.5t-26 -30t-33 -16t-31.5 -4.5q-14 -1 -29.5 -0.5
t-29.5 0.5h-32l-45 128h-439l-44 -128h-29h-34q-20 0 -45 1q-25 0 -41 9.5t-25.5 23t-13.5 29.5t-4 30v167h911zM163 247q-12 0 -21 -8.5t-9 -21.5t9 -21.5t21 -8.5q13 0 22 8.5t9 21.5t-9 21.5t-22 8.5zM316 123q-8 -26 -14 -48q-5 -19 -10.5 -37t-7.5 -25t-3 -15t1 -14.5
t9.5 -10.5t21.5 -4h37h67h81h80h64h36q23 0 34 12t2 38q-5 13 -9.5 30.5t-9.5 34.5q-5 19 -11 39h-368zM336 498v228q0 11 2.5 23t10 21.5t20.5 15.5t34 6h188q31 0 51.5 -14.5t20.5 -52.5v-227h-327z" />
    <glyph glyph-name="devices" unicode="&#xe600;" 
d="M916 812h-808q-19 0 -33 -14t-14 -34v-143q0 -19 14 -33t33 -14h808q19 0 33 14t14 33v143q0 20 -14 34t-33 14zM682 681h-122q-4 0 -7.5 3.5t-3.5 8.5t3.5 8.5t7.5 3.5h122q5 0 8.5 -3.5t3.5 -8.5t-3.5 -8.5t-8.5 -3.5zM756 667q-11 0 -18.5 7.5t-7.5 18.5t7.5 18.5
t18.5 7.5t18.5 -7.5t7.5 -18.5t-7.5 -18.5t-18.5 -7.5zM844 667q-11 0 -18.5 7.5t-7.5 18.5t7.5 18.5t18.5 7.5t18.5 -7.5t7.5 -18.5t-7.5 -18.5t-18.5 -7.5zM916 526h-808q-19 0 -33 -14t-14 -33v-143q0 -20 14 -34t33 -14h808q19 0 33 14t14 34v143q0 19 -14 33t-33 14z
M682 396h-122q-4 0 -7.5 3t-3.5 8t3.5 8.5t7.5 3.5h122q5 0 8.5 -3.5t3.5 -8.5t-3.5 -8t-8.5 -3zM756 381q-11 0 -18.5 7.5t-7.5 18.5t7.5 18.5t18.5 7.5t18.5 -7.5t7.5 -18.5t-7.5 -18.5t-18.5 -7.5zM844 381q-11 0 -18.5 7.5t-7.5 18.5t7.5 18.5t18.5 7.5t18.5 -7.5
t7.5 -18.5t-7.5 -18.5t-18.5 -7.5zM916 240h-808q-19 0 -33 -14t-14 -33v-143q0 -20 14 -34t33 -14h808q19 0 33 14t14 34v143q0 19 -14 33t-33 14zM682 110h-122q-4 0 -7.5 3.5t-3.5 8t3.5 8t7.5 3.5h122q5 0 8.5 -3.5t3.5 -8t-3.5 -8t-8.5 -3.5zM756 95q-11 0 -18.5 8
t-7.5 18.5t7.5 18.5t18.5 8t18.5 -8t7.5 -18.5t-7.5 -18.5t-18.5 -8zM844 95q-11 0 -18.5 8t-7.5 18.5t7.5 18.5t18.5 8t18.5 -8t7.5 -18.5t-7.5 -18.5t-18.5 -8zM405 -162q0 -6 -4.5 -10t-9.5 -4h-210q-6 0 -10 4t-4 10v19q0 6 4 10t10 4h210q5 0 9.5 -4t4.5 -10v-19z
M857 -162q0 -6 -4 -10t-10 -4h-210q-5 0 -9.5 4t-4.5 10v19q0 6 4.5 10t9.5 4h210q6 0 10 -4t4 -10v-19zM567.5 -97q-4.5 4 -10.5 4h-21v33q0 6 -4.5 10.5t-9.5 4.5h-20q-5 0 -9.5 -4.5t-4.5 -10.5v-33h-21q-6 0 -10.5 -4t-4.5 -10v-91q0 -6 4.5 -10t10.5 -4h90q6 0 10.5 4
t4.5 10v91q0 6 -4.5 10z" />
    <glyph glyph-name="pin" unicode="&#xe601;" 
d="M193 512q-1 16 -1 32q0 146 93.5 249t226.5 103t226.5 -103t93.5 -249q0 -16 -1 -32h1q0 -54 -34.5 -142t-77 -165t-97.5 -164.5t-76.5 -119t-34.5 -49.5v0q-13 18 -34.5 49.5t-77 119t-97.5 164.5t-76.5 165t-34.5 142h1zM512 448q53 0 90.5 37.5t37.5 90.5t-37.5 90.5
t-90.5 37.5t-90.5 -37.5t-37.5 -90.5t37.5 -90.5t90.5 -37.5zM512 448z" />
    <glyph glyph-name="printertext" unicode="&#xe602;" 
d="M0 428q0 48 40 88t88 40h64v-128v-64h640v64v128h64q48 0 88 -40t40 -88v-320q0 -48 -40 -88t-88 -40h-64v128v64h-640v-64v-128h-64q-48 0 -88 40t-40 88v320v0zM256 -20v128h512v-128v-192h-512v192v0zM768 556v-128h-512v128v192h512v-192v0zM320 44v-64h384v64h-384
v0zM320 -84v-64h384v64h-384v0zM320 -84z" />
    <glyph glyph-name="arrowleftdouble" unicode="&#xe603;" 
d="M0 300l384 320v-53l-320 -267l320 -267v-53l-384 320v0zM128 300l384 320v-197q89 -8 161 -30.5t138.5 -65t119.5 -113.5t93 -170q-118 98 -241.5 134.5t-270.5 18.5v-217l-384 320v0zM128 300z" />
    <glyph glyph-name="arrowrightdouble" unicode="&#xe604;" 
d="M1024 300l-384 320v-53l320 -267l-320 -267v-53l384 320v0zM896 300l-384 320v-197q-89 -8 -161 -30.5t-138.5 -65t-119.5 -113.5t-93 -170q118 98 241.5 134.5t270.5 18.5v-217l384 320v0zM896 300z" />
    <glyph glyph-name="export" unicode="&#xe605;" 
d="M0 556h432l-160 -128h-144v-448h640v128l128 102v-358h-896v704zM1024 428l-320 -256v127q-77 3 -143.5 -11t-122 -43.5t-97 -61.5t-87.5 -76q0 91 38.5 175t101.5 143.5t144.5 95.5t165.5 36v127zM1024 428z" />
    <glyph glyph-name="repeat" unicode="&#xe606;" 
d="M987 449q37 -70 37 -149q0 -87 -43 -160.5t-116.5 -116.5t-160.5 -43h-384v-128l-256 192l256 192v-128h384q80 0 136 56.5t56 135.5q0 36 -13 70zM128 300q0 -36 13 -70l-104 -79q-37 70 -37 149q0 87 43 160.5t116.5 116.5t160.5 43h384v128l256 -192l-256 -192v128
h-384q-80 0 -136 -56.5t-56 -135.5zM128 300z" />
    <glyph glyph-name="freebsd" unicode="&#xe607;" 
d="M86 219q-20 75 -18.5 147.5t27.5 140.5t68.5 124.5t104 99t134.5 64.5q164 47 320 -21q-8 -10 -15 -21q-36 8 -61 -3.5t-32 -41.5q-10 -48 28 -116t103 -115.5t118 -47.5t64 48q5 24 -3 56q15 9 30 20q17 -35 28 -73q20 -75 18.5 -147t-27.5 -140.5t-68.5 -125
t-104.5 -99t-135 -63.5q-75 -20 -148 -19t-141.5 27t-125.5 68t-100 103.5t-64 134.5v0zM689 675l1 1q84 86 175.5 130.5t136.5 21.5q21 -13 20 -42.5t-19.5 -70t-43.5 -79.5t-52 -72q-30 -31 -64 -59q-58 21 -98.5 65.5t-55.5 104.5zM13 774q-8 62 38 78t119 -23
q34 -18 67 -45q-91 -62 -144 -159q-70 79 -80 149v0z" />
    <glyph glyph-name="linuxdebian" unicode="&#xe608;" 
d="M777 451q0 -9 -1 -18t-3 -14l-6 -15t-6 -16l-14 -7q-6 -12 -4.5 -18t-2.5 -15q-58 -52 -67 -54q-5 0 5 11l3 3q-8 -6 -16 -14t-16 -12.5t-25 -9.5l-1 3q-28 -12 -58 -11.5t-58.5 15t-51 37t-36.5 54.5t-13 66l-1.5 -4.5t-1.5 -2.5l-2 -2q-4 47 19 88t63 60q41 19 83.5 13
t71.5 -34q-18 24 -48 40.5t-65 14.5q-35 0 -66 -20t-43 -46q-14 -9 -24.5 -38t-14.5 -32q-1 -29 -2 -50t6 -41t14 -34.5t21 -30.5t27 -28t33 -28q5 -3 6 -5t-0.5 -4.5t-0.5 -4.5q-36 17 -63 49q17 -26 32 -39q-12 5 -34.5 30.5t-25.5 26.5q29 -52 100 -84t117 -12
q-60 -3 -96 11q-11 6 -21 14t-8 10q137 -51 243 35q8 6 18.5 16.5t17.5 17t9 6.5q-5 -7 -3.5 -9.5t-1.5 -8.5q8 13 6 22t13 30l10 -14q-2 11 13.5 42.5t13.5 52.5q6 10 6 -6q0 -15 -6 -35q6 14 6.5 24.5t-0.5 17t0 20.5q9 -24 10 -27q-2 19 -1 27t6.5 22t6.5 19
q-1 0 -3.5 -1t-4.5 -1t-3.5 6t-2.5 18q0 9 3 10.5l3 1.5q-9 5 -16 36q2 2 4.5 -1.5t5 -8.5t4.5 -5q-1 5 -4.5 21t-3.5 24q-6 13 -8 13q-1 0 -1 -2q-2 -6 -7 2q-6 16 -4.5 21.5t5 4t8 -1t5.5 6.5q19 -28 40 -103q-6 35 -20 74q2 -1 1 5q-1 23 -2 23q1 2 7 -8q1 -2 3 -5
q-15 56 -58.5 107t-93.5 78l6 -6l5.5 -5.5t3 -4t-0.5 -2.5q-11 7 -17.5 11.5t-8 6.5t-3 5.5t-1.5 4.5q-15 5 -19.5 5t-11.5 -2.5t-13 -2.5q-22 12 -36 17.5t-32.5 11t-32.5 11.5l2 -10q-13 7 -35 2.5t-36 -2.5l4 3q8 3 17 5q-14 -2 -29.5 0.5t-29.5 -2.5q1 1 23 14
q-9 -1 -29 -5q-22 -5 -22 -1q0 1 2 3q-5 -2 -33.5 -14.5t-44.5 -20t-38.5 -21.5t-36.5 -27l-2 9q-6 -8 -28 -27.5t-39 -38.5t-19 -32l-5 -1q-4 -7 -8 -16t-8.5 -20t-7.5 -17q-10 -18 -16 -11q-24 -48 -48 -130q3 -5 3 -25t-1 -43t1 -48q-5 -84 22 -168.5t75.5 -151
t113.5 -116t134 -68.5q23 -9 103 -11q-18 5 -41 9t-45 12q-13 6 -21.5 13t-17.5 17.5t-16 16.5l8 -15q-21 8 -30.5 16t-25.5 13l9 11q-9 1 -22.5 12.5t-17.5 21.5l-15 -1q-26 33 -25 49l-5 -8q-1 2 -9 14q-38 51 -30 52q2 0 7 -3q-1 1 -6 4.5t-8.5 8t-6.5 10.5l6 7
q-27 36 -26 51q8 -11 19 -14q-10 25 -18 36t-13.5 11t-10 0.5t-10.5 10.5t-14 35h6q-1 1 -11 22l3 25q-10 11 -12.5 36t-1 46.5t5 56.5t4.5 46q1 12 16 40t20 43l-9 1q17 30 63.5 74.5t70.5 41.5q8 11 7.5 11t-6.5 -3.5t-8 -1.5q18 19 30 26t27.5 8t21.5 3q7 4 8 6l-8 -1
q-15 -4 -14 -1q1 1 3 2q19 5 41 19t58 17q4 -2 -4 -4q-15 -5 -17 -7q30 16 87.5 12.5t100.5 -23.5q54 -26 99 -89t47 -127l4 -1q-1 -10 0 -34t-0.5 -43.5t-6.5 -35.5l8 17v0z" />
    <glyph glyph-name="linuxkeyring" unicode="&#xe609;" 
d="M718 -28q4 3 33 23t39.5 36.5t-2.5 31.5q-27 15 -38 22t-32.5 22t-34.5 30.5t-22 34.5q-9 25 0 52.5t32.5 42t50.5 3.5q18 -1 28 -31q9 -29 -6 -32q-4 -1 -9 1q-3 31 -25 29q-20 -2 -32 -25q-14 -29 17 -45q17 -12 36 -8.5t34 15t22 30.5t0 38q-4 38 -38 58t-69 6
q-22 -7 -42 -24.5t-32.5 -35.5t-31 -38.5t-36.5 -31.5q-22 -16 -52.5 -25t-48.5 -11t-61 -4t-53 -3q-1 -1 -4.5 -7.5t-5 -9t-5 -8t-5.5 -8t-5.5 -7t-6.5 -7.5t-7 -6t-8 -5.5t-9 -4.5q-63 -51 -82 -96q-22 -17 -102 0q95 45 124 108q19 31 18.5 73t-26.5 69q-69 70 -63 148
q2 86 57 133q12 30 -47 -11l-2 -2q-2 -1 -2 -2q-7 8 -12.5 17t-9.5 22t5 19q6 1 29.5 -4.5t37.5 -4t10 16.5q-20 6 -19 9q1 2 21 4q50 5 51 18q0 8 -11 18q-18 12 -41 19t-46 3t-32 -24q-22 2 -29.5 18.5t3 32t31.5 14.5q8 17 22 17t27 -9t30 -19.5t27 -12.5q12 -13 47 -3
q12 3 12 6q1 4 -18 5q-15 -4 -25.5 0t-8.5 14t18 17q48 39 123 23q8 4 18.5 24t19.5 33.5t16 6.5q-16 -13 -16 -30q1 -16 23 1q10 6 35 30t34 25q-4 -14 -13.5 -28.5t-18 -23.5t-23.5 -23.5t-21 -21.5q-2 -4 -8 -9t-12.5 -8.5t-12.5 -8t-6.5 -8.5t5.5 -9q33 -28 55 -78
q1 -4 11 -60q-19 16 -39 18q-14 1 1 -18q29 -25 34.5 -62.5t-23.5 -63.5q-12 -14 -30 -16.5t-33 4t-23 22t-2 34.5q7 10 11.5 13.5t7.5 0.5t4 -7t3 -13q1 -5 1.5 -8t2 -7.5t2.5 -6.5q35 -6 36 23q2 27 -21.5 45.5t-46.5 0.5q-29 -12 -34.5 -41t11 -55t45.5 -32q15 -2 26 -3
t25 3.5t24 8.5t23 12t22 14.5t22 15t21 13.5q39 28 82.5 38t89.5 0q20 -1 54 -21t49 -21q-1 21 8 39.5t26 33t32 24t36 20.5q4 1 9.5 5t9 7.5l9.5 9.5t8.5 8t6.5 5t4 0t1.5 -7t-0.5 -16q-2 -19 -14.5 -35t-27.5 -25.5t-30.5 -24.5t-20.5 -30q-8 -23 8.5 -40.5t40 -17
t32.5 23.5q5 25 -18 28q-20 3 -26 -10q-6 -11 8 -24q-28 4 -23 29q5 22 26 29q15 5 29 -5q26 -12 26.5 -38.5t-19.5 -48t-44 -23.5q-9 -5 -22 0t-21.5 3.5t-4.5 -16.5q1 -7 2.5 -25.5t1.5 -28t-2 -24.5t-6 -26q-7 -3 -16.5 -17.5t-22.5 -28.5t-27 -17q-3 -12 5 -28t18 -27.5
t14.5 -25t-4.5 -19.5q-11 -9 -20 -22.5t-20 -36t-14 -27.5q-15 -3 -32 -3.5t-38.5 0t-32.5 -0.5q2 2 11.5 7.5t14.5 8.5v0zM521 52q6 4 23 13.5t25.5 15.5t21 16t20 21t11.5 24q22 40 27 -2q2 -5 7 -12t7.5 -11t3 -8t-4.5 -6t-17 -2q-14 -4 -27 -17t-20.5 -25.5t-21 -21
t-30.5 -6.5h-31.5h-31.5q7 4 19.5 11t18.5 10zM94 105q0 18 -6.5 37.5t-13.5 32.5t-19 34.5t-17 32.5q1 12 14 20.5t28 12.5t28.5 14t16.5 25q9 5 14 -6.5t10 -29.5t12 -23q-2 -5 -18.5 -9.5t-31.5 -8.5t-22.5 -15t8.5 -30q5 -12 24.5 -29t23.5 -23q-6 -4 -16.5 -14t-19 -17
t-17.5 -10z" />
    <glyph glyph-name="linuxmint" unicode="&#xe60a;" 
d="M2 823v-178h77q38 0 51 -22t13 -66l1 -315q0 -80 43.5 -148t118.5 -107.5t164 -39.5h445q44 0 75.5 25t31.5 65v488q0 80 -44 148t-119 107.5t-164 39.5h-187v1zM245 714h89v-449q0 -44 27 -75t64 -31l305 -2q47 0 80 28t33 66v238q0 23 -16.5 39t-39 16t-39 -16
t-16.5 -39v-204h-95v204q0 23 -16.5 39t-39 16t-39 -16t-16.5 -39v-204h-94v204q0 61 44 105t106 44q59 0 102 -42q44 42 103 42q62 0 106 -44t44 -105v-254q-6 -65 -54 -112v0q-56 -56 -135 -56h-339v1q-63 7 -110 52q-54 53 -54 128v466z" />
    <glyph glyph-name="linuxredflag" unicode="&#xe60b;" 
d="M651 884q-45 -22 -102.5 -28t-105.5 -1.5t-107.5 1.5t-103.5 -18q-7 -3 -31.5 -11t-38 -13.5t-32 -14.5t-28.5 -19.5t-11 -22.5q19 -25 63 -82t69 -89t60.5 -80t64.5 -88q-1 -14 -5 -52.5t-4 -58.5t7.5 -49t25.5 -51q18 -17 26.5 -46t10 -54t12.5 -52.5t33 -43.5
q22 -24 69 -30q52 -7 54 25q0 5 -1 11q-26 -15 -55 -15.5t-54.5 18t-30.5 47.5q-25 119 25 202q-6 9 -22.5 31t-24 33.5t-16 32t-10.5 41.5q-26 22 5 33q8 3 28 8q60 14 70 33q3 6 2 14q12 38 50 54t79.5 7t63.5 -37q7 -23 23 -31.5t38.5 -3.5t42.5 12.5t45.5 19.5t36.5 15
q17 8 29.5 19t18 23t-3.5 23t-34 16q-76 46 -134.5 113.5t-89.5 148.5zM570 547q-21 -2 -36.5 -12t-25 -29t-14.5 -35t-11 -41.5t-9 -35.5q-23 -50 -9 -77q11 -21 44 -2q3 -15 23 -35.5t27 -22.5q9 -2 22.5 5.5t28.5 18t22 13.5q-12 1 -36 -11t-37 -12q-4 0 -8.5 1t-8 4.5
t-6 5.5t-6 7t-5 7t-5.5 9t-4 8q3 -1 16 -4t24 -10q9 -4 18.5 -3t16.5 4l8 4l3 2q-2 1 -27 0q-38 -3 -74 29q-1 4 -2 9q9 9 33 15h1q18 0 18 18q0 11 -5 18.5t-12 7.5q-4 0 -8 -3q6 -1 6 -9q0 -9 -7 -9q-5 0 -7 7q-2 -7 -2 -12q0 -6 1 -10l-19 -2l1 7q-8 29 16 54q22 24 37 7
q7 -8 9 -28q9 -66 49 -1q6 9 12 21q14 1 23.5 -3.5t13.5 -11t4 -21t-1 -22.5t-3 -28l-14 8q3 3 5 9q2 10 -1 18.5t-10 10.5q-2 1 -4 1l-1 -0.5l-1 -0.5q3 -3 3 -8q0 -11 -9 -11q-7 0 -8 8q-3 -4 -4 -8q-5 -18 11 -23h3q22 -16 24 -28q1 -3 2 -3q-2 -31 6 -45q0 -23 -14 -34
t-34.5 -13t-41 -2.5t-37.5 -6.5t-21 -22q7 -24 28.5 -35t44 -11t50.5 -0.5t41 -4.5q-6 -35 9 -32q17 3 34 39q9 20 12 39q2 23 -10.5 63.5t-21.5 71t1 74.5q7 22 4 48t-11.5 49t-27.5 39t-45 17q-13 2 -51 1zM632 111q-9 -5 -16 -12q8 7 21 7q42 -26 97 -21q2 -10 10 -27.5
t13 -30t7 -26t-7.5 -22t-30.5 -10.5q-7 -8 -17 -14q49 22 69 26q9 15 -1.5 34t-23.5 40.5t-9 39.5q-16 0 -34.5 2.5t-42.5 7t-35 6.5v0zM709 -45q-21 -9 -31 -12q15 3 31 12zM678 -57q-43 -9 -72 16t-13 71q1 3 2.5 14t2.5 16.5t3.5 14t6.5 14.5q-24 -31 -25 -75.5t24 -70.5
q31 -14 71 0v0zM440 -2q-71 -21 -91 -39q6 4 44.5 15.5t46.5 23.5zM549 -32q-2 -7 -3 -17.5t-1.5 -17t-2.5 -13.5t-5.5 -10t-11 -3t-19.5 5q-90 -61 -120 12q-24 10 -33.5 17.5t-6.5 13.5q-13 -17 28 -30q15 -47 54 -53.5t73 28.5q21 -9 33 -2t16.5 21t3.5 28.5t-5 20.5v0z
M569 358q-12 10 -17 -1q-2 -2 5 -1zM592 354q12 9 17 -1q2 -2 -5 -2z" />
    <glyph glyph-name="linuxredhat" unicode="&#xe60c;" 
d="M641 -24q7 9 29 40t32 46.5t21.5 42.5t14.5 52q6 11 7 19t-3.5 12.5t-9 6.5t-15.5 2.5t-18 0t-19 -1.5q-13 -1 -18.5 -1.5t-14.5 0.5q-19 -4 -65 0t-65 -4q-72 -17 -135 63q-9 5 -29.5 11t-34.5 14.5t-22 25.5q-17 21 -42 13.5t-31.5 -29.5t11.5 -44q3 -6 16 -21
q33 -39 21 -45q-7 -4 -26 0q-9 4 -20 13.5t-20 17.5t-19 14.5t-22 6t-25 -9.5q-5 -1 -25 -6.5t-32 -8t-28 -2.5t-25.5 8.5t-11.5 24.5q-34 130 2 264.5t131 227.5q74 76 174.5 115.5t205.5 33.5q150 2 279 -91.5t184 -236.5q51 -127 22 -296q-4 -16 -8.5 -32t-13 -35
t-13 -29t-16.5 -34t-15 -29q-27 -2 -49 -1t-49 -1t-48 -9q-18 -20 -63 -50.5t-63 -50.5q-8 -6 -18.5 -9t-17.5 2v0zM794 249q54 16 94.5 51t43.5 85q12 63 -85 107q-13 12 -23.5 13t-18 -5.5t-14 -15t-14.5 -17.5t-16 -12q32 52 2 128q-3 6 -11.5 29t-12 31.5t-12 28
t-15 30.5t-17 25t-21.5 25q-12 10 -27 15.5t-26 8t-31 0.5t-28 -3t-32 -6t-27 -6q-19 -2 -54.5 4t-64.5 4.5t-50 -18.5q-8 -10 -14 -22.5t-9.5 -22.5t-7 -27t-4.5 -24.5t-3.5 -27t-3.5 -24.5q1 -9 5 -17.5t8 -14.5t13 -12t14 -9.5t17 -8t16.5 -6.5t17.5 -6t16 -5
q12 -4 38 -9.5t43 -10t33.5 -17.5t21.5 -34q21 -32 22 -39q2 -11 -16 -10q-4 1 -10 2q-142 27 -227 84q-38 23 -32 84q-17 -1 -34 -0.5t-35 -0.5t-33.5 -4.5t-31 -12t-26.5 -21.5q-7 -11 -8.5 -22.5t4 -23.5t9.5 -20.5t16.5 -21l17 -17t17.5 -16.5q162 -126 382 -173
q133 -20 244 8zM363 633q-22 13 -17 37q4 20 20 15q9 -3 18 -13q20 -11 40 -6.5t43 3t34 -19.5q-7 -2 -38 -11t-50.5 -13.5t-34.5 -6.5q-7 6 -15 15zM588 707q34 16 5 28q-23 9 -44 5q72 21 106 -8q18 -20 -23 -29q-35 -7 -45 0q-2 2 1 4zM565 101q-22 5 -22 17t16 13
q10 0 20 -6q11 -11 39 2q10 4 10.5 0t-6.5 -19q-7 -11 -17.5 -13.5t-18.5 -0.5t-21 7z" />
    <glyph glyph-name="linuxsuse" unicode="&#xe60d;" 
d="M265 81q-17 2 -28 13t-14 25.5t-4.5 31.5t0.5 31q0 4 -0.5 24t2.5 23q26 23 42 -2t7 -53q1 -4 0 -22t4 -20q4 -7 11.5 -8.5t18 0t15.5 0.5q3 0 14.5 -0.5t18 1.5t10.5 9q1 18 0 33t0 33.5t5 31.5q18 11 29.5 5.5t14.5 -20.5t4.5 -32t-1.5 -30q-1 -6 -0.5 -33.5
t-2.5 -33.5q-7 -9 -15.5 -10t-15 3.5t-14.5 9.5t-15 5q-52 -25 -86 -15v0zM12 85q-7 8 -7 26t16 13h104q24 28 -3 39t-59 5q-32 -5 -49.5 21t-9.5 57q5 28 31 38.5t57 6.5q6 0 20 0.5t23.5 0.5t19 -2.5t13.5 -10.5t0 -22q1 -7 -6 -8t-15 0.5t-14 -0.5q-9 -1 -20 0.5
t-22.5 0.5t-20.5 -3t-13 -10t-2 -21q14 -9 38 -8.5t46.5 -1.5t36.5 -17q15 -24 9 -58t-34 -46q-8 -4 -19 -4.5t-20.5 0t-20.5 -0.5h-74l-2 2l-3 3v0zM457 85q-6 8 -6 26t15 13h104q24 27 -1.5 38.5t-54.5 5.5q-33 -6 -53 19t-11 56q2 22 19 34t35.5 14.5t40.5 -0.5
q6 0 31.5 0.5t30.5 -1.5q12 -8 12 -28q0 -16 -13 -13q-10 0 -30.5 0.5t-36.5 0t-31 -4.5q-9 -14 -7 -23t12.5 -11.5t24.5 -4t27.5 -0.5t22.5 -1q22 -1 33.5 -18t10 -38t-7.5 -39q-9 -16 -25 -24t-34 -6h-51h-51q-5 4 -6 5zM703 84q-19 7 -28 23.5t-8.5 35t0.5 37.5
q0 7 -0.5 23t0 25.5t3 22t10 21t18.5 14.5q12 2 23.5 3.5t27 1.5h23t27.5 -1t24 -1q21 -8 30.5 -28t9 -41.5t-7.5 -41.5q-11 -9 -26.5 -10.5t-34.5 0t-29 0.5h-23.5h-23.5q-5 -24 7 -38t37 -6h67q0 -9 0.5 -19.5t-5 -18.5t-16.5 -6q-19 0 -35 -0.5t-35.5 0.5t-34.5 4z
M811 220q1 15 -9.5 23t-26 8t-30.5 -2.5t-25 -7.5q-6 -15 -2 -27t21 -6h72v12zM291 262q-56 6 -94 53.5t-29 103.5q7 98 119 178q70 51 151.5 76t162.5 19q68 1 199 -34q-1 16 5.5 22t18.5 4.5t25 -5.5t27 -8.5t22 -3.5q4 -2 20.5 -6.5t23 -6.5t20 -8t20 -12t14 -15.5
t10.5 -20.5q40 -72 -21 -80q-13 -5 -28.5 -5.5t-27.5 2t-28 9t-26 12t-26.5 14.5t-25.5 14l3.5 -10.5t4.5 -11t5 -8.5t7.5 -8t10.5 -4q95 -47 151 -15q16 6 15 -3q-2 -14 -24 -29q-13 -9 -21 -7q-39 -17 -91.5 -18.5t-93.5 4.5q-19 0 -28.5 -11t-9 -27t5 -32.5t12.5 -28.5
q27 -39 -6 -18q-21 5 -38 17.5t-39 35.5t-29 30q-29 23 -67.5 24t-62.5 -29q-5 -10 -6.5 -22t-1 -29.5t0.5 -23.5q-44 22 -53 26q-10 57 -57 95.5t-103 30.5q-44 -4 -70.5 -43.5t-9.5 -80.5q12 -37 51 -53t74 1q21 11 25.5 35t-9 44.5t-37.5 21.5q-26 8 -33 -14
q-6 -19 9 -26q10 -5 25 2q28 -14 9 -31q-20 -17 -45 -11q-11 3 -17 10q-29 19 -24 56t38 49t63.5 2t50.5 -40t16 -62q-4 -47 -45 -73t-88 -17zM957 539q23 10 27 34t-10.5 44t-39.5 18q-23 2 -38 -16.5t-12.5 -42t22.5 -34.5q24 -17 51 -3zM923 552q-31 10 -21 40
q7 24 29 28q16 3 29 -11q18 -20 3 -43.5t-40 -13.5zM952 586q8 16 -7 16q-15 -1 -18 -11q-2 -5 8 -8q3 -1 8 -1l5 1z" />
    <glyph glyph-name="linuxubuntu" unicode="&#xe60e;" 
d="M224 382.5q0 -41.5 -30 -71t-72 -29.5t-72 29.5t-30 71t30 71.5t72 30t72 -30t30 -71.5zM576 624q90 0 156.5 -59.5t77.5 -146.5l158 5q-11 127 -96 224q-37 -25 -82 -25q-58 0 -99.5 41t-41.5 99v12q-36 7 -73 7q-93 0 -175 -41l78 -136q46 20 97 20zM790 661
q42 0 72 29.5t30 71.5t-30 71.5t-72 29.5t-72 -29.5t-30 -71.5t30 -71.5t72 -29.5zM795.5 99q-42.5 0 -72 -29.5t-29.5 -71.5t29.5 -71.5t72 -29.5t72 29.5t29.5 71.5t-29.5 71.5t-72 29.5zM340 391q0 55 24.5 103t66.5 81l-84 133q-111 -79 -149 -207q30 -19 47.5 -50.5
t17.5 -67.5t-16 -66t-44 -50q41 -122 147 -196l78 138q-41 33 -64.5 80.5t-23.5 101.5zM796 138q34 0 65 -16q98 102 107 242l-158 3q-9 -89 -76 -149.5t-158 -60.5q-50 0 -95 20l-79 -137q82 -39 174 -39q39 0 78 7q5 55 45.5 92.5t96.5 37.5z" />
    <glyph glyph-name="windows7" unicode="&#xe60f;" 
d="M1022 894l-546 -78v-396h546v474zM403 806q-200 -29 -401 -58v-328h401v386zM2 348v-328q201 -29 401 -58v386h-401zM476 348v-396l546 -78v474h-546z" />
    <glyph glyph-name="linuxcentos" unicode="&#xe610;" 
d="M455 -48l-61 61h104v301q19 29 36 2q2 -14 1.5 -77.5t-0.5 -77.5v-148q97 0 103 -1q-6 -6 -121 -122q-11 9 -31 31zM166 33v181q11 -13 37 -38.5t41 -39.5l1 1l1 1l1 1l1 1l1 1l1 1l1 1l1 1l1 1l1 1l1 1l1 1l1 1l1 1l1 1l1 1l1 1l1 1l1 1l1 1l1 1l1 1l1 1l1 1l1 1l1 1
l1 1l1 1l1 1l1 1l1 1l1 1l1 1l1 1l1 1l1 1l1 1l1 1l1 1l1 1l1 1l1 1l1 1l1 1l1 1l1 1l1 1l1 1l1 1l1 1l1 1l1 1l1 1l1 1l1 1l1 1l1 1l1 1l1 1l1 1l1 1l1 1l1 1l1 1l1 1l1 1l1 1l1 1l1 1l1 1l1 1l1 1l1 1l1 1l1 1l1 1l1 1l1 1l1 1l1 1l1 1l1 1l1 1l1 1l1 1l1 1l1 1l1 1l1 1
l1 1l1 1l1 1l1 1l1 1l1 1l1 1l1 1l1 1l1 1l1 1l1 1l1 1l1 1l1 1l1 1l1 1l1 1l1 1l1 1l1 1l1 1l1 1l1 1l1 1l1 1l1 1l1 1l1 1l1 1l1 1l1 1l1 1l1 1l1 1l1 1l1 1l1 1l1 1l1 1l1 1l1 1l1 1l1 1l1 1l1 1l1 1l1 1l1 1l1 1l1 1l1 1l1 1l1 1l1 1l1 1l1 1l1 1l1 1l1 1l1 1l1 1l1 1
l1 1l1 1l1 1l1 1l1 1l1 1l1 1l1 1l1 1l1 1l1 1l1 1l1 1l1 1l1 1l1 1l1 1l1 1l1 1l1 1l1 1l1 1l1 1l1 1l1 1l1 1l1 1l1 1l1 1l1 1l1 1l1 1l1 1l1 1l1 1l1 1l1 1l1 1l1 1l1 1l1 1l1 1l1 1l1 1l1 1l1 1l1 1l1 1l1 1l1 1l1 1l1 1l1 1l1 1l1 1l1 1l1 1l1 1q15 3 21.5 -2.5
t3.5 -20.5l-116.5 -116.5t-94.5 -95.5l77 -77q-89 -2 -179 -1zM335 72l-20 20l-20 20q175 173 183 181q1 -72 0 -259q-4 -1 -52 -1h-52l-18 18zM556 33q-2 74 0 260l182 -182l-79 -78h-103v0zM689 34l77 77l-1 1l-1 1l-1 1l-1 1l-1 1l-1 1l-1 1l-1 1l-1 1l-1 1l-1 1l-1 1
l-1 1l-1 1l-1 1l-1 1l-1 1l-1 1l-1 1l-1 1l-1 1l-1 1l-1 1l-1 1l-1 1l-1 1l-1 1l-1 1l-1 1l-1 1l-1 1l-1 1l-1 1l-1 1l-1 1l-1 1l-1 1l-1 1l-1 1l-1 1l-1 1l-1 1l-1 1l-1 1l-1 1l-1 1l-1 1l-1 1l-1 1l-1 1l-1 1l-1 1l-1 1l-1 1l-1 1l-1 1l-1 1l-1 1l-1 1l-1 1l-1 1l-1 1
l-1 1l-1 1l-1 1l-1 1l-1 1l-1 1l-1 1l-1 1l-1 1l-1 1l-1 1l-1 1l-1 1l-1 1l-1 1l-1 1l-1 1l-1 1l-1 1l-1 1l-1 1l-1 1l-1 1l-1 1l-1 1l-1 1l-1 1l-1 1l-1 1l-1 1l-1 1l-1 1l-1 1l-1 1l-1 1l-1 1l-1 1l-1 1l-1 1l-1 1l-1 1l-1 1l-1 1l-1 1l-1 1l-1 1l-1 1l-1 1l-2 2l-1 1
l-1 1l-1 1l-1 1l-1 1l-1 1l-1 1l-1 1l-1 1l-1 1l-1 1l-1 1l-1 1l-1 1l-1 1l-1 1l-1 1l-1 1l-1 1l-1 1l-1 1l-1 1l-1 1l-1 1l-1 1l-1 1l-1 1l-1 1l-1 1l-1 1l-1 1l-1 1l-1 1l-1 1l-1 1l-1 1l-1 1l-1 1l-1 1l-1 1l-1 1l-1 1l-1 1l-1 1l-1 1l-1 1l-1 1l-1 1l-1 1l-1 1l-1 1
l-1 1l-1 1l-1 1l-1 1l-1 1l-1 1l-1 1l-1 1l-1 1l-1 1l-1 1l-1 1l-1 1l-1 1l-1 1l-1 1l-1 1l-1 1l-1 1l-1 1l-1 1l-1 1l-1 1l-1 1l-1 1l-1 1l-1 1l-1 1l-1 1l-1 1l-1 1l-1 1l-1 1l-1 1l-1 1l-1 1l-1 1l-1 1l-1 1l-1 1l-1 1l-1 1l-1 1l-1 1l-1 1l-1 1l-1 1l-1 1q-6 30 23 24
q41 -40 116.5 -116t94.5 -95q75 74 78 77v-179q-169 0 -178 1v0zM205 202q-4 4 -19 18.5t-20 23.5v102q246 -1 260 -1l-182 -182l-18 18zM698 254q-8 11 -31 31.5t-37.5 36.5t-11.5 24q24 0 249 -1q1 -19 1 -56v-47q-75 -75 -79 -78q-12 12 -91 90zM83 324l-61 61
q117 115 123 121q0 -4 1 -104h301q28 -19 1 -35q-15 -2 -86.5 -1.5t-87.5 0.5h-128q-1 -97 -1 -103q-8 8 -62 61zM888 314v52h-301q-29 19 -2 35q23 2 128.5 1.5t129.5 -0.5q7 2 16.5 0.5t18 -1t10.5 6.5v99l123 -123q-116 -115 -123 -121v51zM166 475q0 5 -0.5 28t1.5 26
q72 71 76 75q28 -26 58.5 -56t67 -67t57.5 -58h-260v52zM349 528l-105 105q-75 -74 -78 -77v179h179l-78 -78l1 -1l1 -1l1 -1l1 -1l1 -1l1 -1l1 -1l1 -1l1 -1l1 -1l1 -1l1 -1l1 -1l1 -1l1 -1l1 -1l1 -1l1 -1l1 -1l1 -1l1 -1l1 -1l1 -1l1 -1l1 -1l1 -1l1 -1l1 -1l1 -1l1 -1
l1 -1l1 -1l1 -1l1 -1l1 -1l1 -1l1 -1l1 -1l1 -1l1 -1l1 -1l1 -1l1 -1l1 -1l1 -1l1 -1l1 -1l1 -1l1 -1l1 -1l1 -1l1 -1l1 -1l1 -1l1 -1l1 -1l1 -1l1 -1l1 -1l1 -1l1 -1l1 -1l1 -1l1 -1l1 -1l1 -1l1 -1l1 -1l1 -1l1 -1l1 -1l1 -1l1 -1l1 -1l1 -1l1 -1l1 -1l1 -1l1 -1l1 -1
l1 -1l1 -1l1 -1l1 -1l1 -1l1 -1l1 -1l1 -1l1 -1l1 -1l1 -1l1 -1l1 -1l1 -1l1 -1l1 -1l1 -1l1 -1l1 -1l1 -1l1 -1l1 -1l1 -1l1 -1l2 -1l1 -1l1 -1l1 -1l1 -1l1 -1l1 -1l1 -1l1 -1l1 -1l1 -1l1 -1l1 -1l1 -1l1 -1l1 -1l1 -1l1 -1l1 -1l1 -1l1 -1l1 -1l1 -1l1 -1l1 -1l1 -1
l1 -1l1 -1l1 -1l1 -1l1 -1l1 -1l1 -1l1 -1l1 -1l1 -1l1 -1l1 -1l1 -1l1 -1l1 -1l1 -1l1 -1l1 -1l1 -1l1 -1l1 -1l1 -1l1 -1l1 -1l1 -1l1 -1l1 -1l1 -1l1 -1l1 -1l1 -1l1 -1l1 -1l1 -1l1 -1l1 -1l1 -1l1 -1l1 -1l1 -1l1 -1l1 -1l1 -1l1 -1l1 -1l1 -1l1 -1l1 -1l1 -1l1 -1
l1 -1l1 -1l1 -1l1 -1l1 -1l1 -1l1 -1l1 -1l1 -1l1 -1l1 -1l1 -1l1 -1l1 -1l1 -1l1 -1l1 -1l1 -1l1 -1l1 -1l1 -1l1 -1l1 -1l1 -1l1 -1l1 -1l1 -1l1 -1l1 -1l1 -1q6 -31 -23 -24q-21 20 -59 58zM555 435q-2 9 3 15.5t14 14t12 11.5l181 181q-73 74 -76 78h179
q-1 -170 -1 -179q-3 3 -78 77q-105 -105 -209 -210q-4 1 -12.5 0t-12 1t-0.5 11zM608 424q90 91 181 180q3 -3 79 -77v-104q-246 0 -260 1zM507 445q-7 6 -8.5 15t-0.5 21t0 18v257h-104q22 23 62 62.5t60 59.5q17 -16 39.5 -38.5l44 -44t38.5 -39.5h-55h-48v-301
q-2 -2 -5 -6t-5.5 -6.5t-5.5 -4t-6 0t-6 6.5zM386 567q-88 87 -91 90q15 14 39 39q28 26 39 39h105q-1 -245 -1 -259zM555 605v130h104l79 -78q-172 -171 -182 -181q-1 5 -1 64.5v64.5z" />
    <glyph glyph-name="linuxarch" unicode="&#xe611;" 
d="M956 -178q-206 121 -356 154q0 5 0.5 38t-1 43.5t-4.5 35t-10.5 41t-20.5 32.5q-17 30 -51.5 38t-61.5 -15q-27 -25 -41.5 -62t-15.5 -74.5t6 -75.5q-38 -7 -75 -18t-80.5 -30.5t-67 -30.5t-77.5 -39.5t-68 -35.5q28 54 141 260t170 320q1 3 4 10t5 10.5t5 9.5t5.5 8.5
t5.5 6t6.5 3.5t7.5 -1t9 -5t10 -10q24 -16 50.5 -30.5t26.5 -7.5q-9 9 -35 28t-41 36.5t-13 36.5q19 42 54 126t53 124q19 -37 49.5 -109.5t46.5 -105.5q36 -77 76.5 -156.5t100.5 -194t81 -154.5q-6 2 -33 14.5t-43.5 18t-19.5 1.5q7 -5 32.5 -21.5t37 -25t30 -23.5
t31.5 -29q43 -72 75 -139v-4l-4 2v0z" />
    <glyph glyph-name="linuxdeepin" unicode="&#xe612;" 
d="M402 -158q-146 37 -246.5 160t-104.5 273q-7 141 72 266.5t209 181.5q36 19 80 27.5t84.5 7.5t85.5 -3q87 -7 165 -53.5t136 -120.5q72 -86 94 -199.5t-13 -219.5q-37 -132 -147 -223.5t-247 -107.5q-87 -11 -168 11zM602 -121q115 25 204.5 107.5t120.5 195.5
q29 100 6.5 204t-87.5 184q-18 10 -39.5 10.5t-50.5 -4.5t-42 -5q-70 -13 -119.5 -32.5t-81.5 -60.5q-4 -13 -9.5 -26t-13 -28t-12 -23t-15 -27t-13.5 -24q7 -7 13.5 -8t12.5 2.5t11 9.5t10 15.5t8.5 17.5t7.5 16.5t7 12.5q4 8 12.5 41t21 47.5t35.5 8.5q3 -91 -31 -162
q-57 -101 -101 -62q-19 24 -22.5 56.5t4.5 61t23 57.5q24 39 55.5 75t82 85t67.5 65q3 6 -6.5 10t-24.5 7t-19 6q-29 6 -141 18q-83 -152 -96 -305q-1 -57 17.5 -107t60.5 -77q34 -14 67 -1.5t52 44.5q11 14 19 31.5t12.5 30.5t7.5 37t3.5 33.5t1.5 38.5t2 34q-3 26 9 25
t17 -21q2 -6 2 -12q6 -51 7 -89t-9.5 -84.5t-35.5 -81.5q-28 -35 -73.5 -47.5t-91.5 -3.5t-83 35q-29 20 -54 49.5t-42 56t-34.5 66.5t-26.5 66t-24 70q-2 3 -5 16q-4 17 -7 17t-5 -6q-59 -86 -71 -195.5t22 -206.5q1 -3 4 -15t7 -16.5t14 -3.5q81 -17 145 -24.5t141.5 0
t141.5 36.5q59 27 97.5 80.5t36.5 116.5q1 32 -8 70.5t-16.5 57t-27.5 65.5q91 -81 112 -158q27 -85 5 -174.5t-85 -153.5q-38 -44 -87.5 -76.5t-122.5 -68.5q-14 -12 12 -13q12 0 40 3q15 2 19 2q32 3 56 8z" />
    <glyph glyph-name="linuxothers" unicode="&#xe613;" 
d="M440 552q-6 0 -8.5 -5t-4.5 -5q-5 0 -3 5q3 6 16 5zM472 551q5 1 9.5 -2.5t6.5 -3.5q6 2 0 6t-16 0zM829 -92q-40 -19 -89 -63q-9 -8 -37.5 -9.5t-49.5 7.5q-10 5 -16 12.5t-9 13t-12.5 10t-25.5 4.5q-39 1 -72 1q-33 -1 -63 -2q-32 -1 -54 -12t-38.5 -22t-35.5 -10
q-16 0 -61.5 15.5t-80.5 22.5q-11 2 -28.5 5t-27.5 5t-21.5 5t-18.5 7t-10 10q-6 12 4 34.5t10 28.5q1 9 -2 21.5t-6 22t-2.5 18.5t6.5 14q7 6 31 7.5t34 6.5q16 8 22.5 17.5t6.5 26.5q12 -38 -18 -55q-18 -10 -45 -8q-19 2 -24 -5q-7 -8 2 -30q2 -3 5 -9l4.5 -9t2.5 -9
t1 -11q0 -8 -9.5 -25.5t-7.5 -25.5t20 -13q11 -3 46.5 -9.5t55.5 -11.5q14 -3 41 -11t45 -12t31 -2q29 4 41 19.5t7 36t-11.5 34.5t-13.5 26q-77 114 -107 138q-28 23 -49 8q-6 -4 -8 6t-2 22q1 15 6 27t13.5 24.5t12.5 21.5q4 10 14.5 37t16 41t16 31.5t22.5 28.5
q60 72 68 101q-7 62 -9 161q-1 47 13.5 78.5t58.5 54.5q21 10 58 11q66 0 108 -29q31 -22 50 -63t17 -77q-4 -48 16 -110q19 -59 74 -114q30 -30 54.5 -84.5t32.5 -99.5q6 -38 1 -60t-15 -24q-6 -1 -13.5 -9.5t-15 -18.5t-22.5 -17.5t-34 -7.5q-10 1 -17 3t-12.5 7t-7.5 8
t-6 10.5t-5 9.5q-12 20 -22.5 16.5t-16.5 -25.5q-5 -22 4 -51q11 -36 1 -101q-5 -34 10.5 -52.5t40 -17t46.5 18.5q33 26 50 35t57 22q30 9 43 18.5t10 18t-13.5 15t-28.5 11.5q-19 6 -28 25.5t-8 38t9 24.5q0 -16 4 -29.5t8 -21t11.5 -15t11.5 -10t12 -6.5t9 -5
q56 -32 -22 -71q-9 -5 -28 -13q-11 -5 -16 -7zM646 106q8 9 28 10q1 19 19.5 27t40 5.5t33.5 -11.5q0 8 -31 22q3 8 5 16t3 13.5t1 14v11.5t-1.5 12.5t-2 12t-3.5 14.5t-3 15q-6 25 -26.5 53.5t-39.5 39.5q13 -11 32 -43q48 -84 29 -145q-6 -20 -27 -22q-18 -1 -22 10
t-4.5 43t-6.5 56q-5 20 -10.5 35.5t-10.5 24t-8.5 13t-7.5 7.5t-4 4q-8 32 -17 53t-16 29t-13 17.5t-9 20.5q-2 11 3.5 28t2.5 26t-25 13q-8 1 -24 9t-20 8q-5 1 -6.5 14t4.5 26.5t20 13.5q21 2 28.5 -15.5t2.5 -30.5q-6 -10 -1 -13.5t16 -0.5q8 2 7.5 19t0.5 20
q-6 29 -17.5 39t-30.5 14q-58 -4 -49 -72q1 -5 0 -5q-5 4 -16.5 5t-18.5 0t-8 2q0 30 -9.5 47t-24.5 18q-15 0 -23 -14.5t-9 -30.5q-1 -8 2 -19.5t7.5 -20t8.5 -6.5q8 2 9 9q0 2 -5 2q-4 0 -8.5 7.5t-4.5 17.5q-2 28 23 27q10 -1 15.5 -11.5t5 -20t-0.5 -11.5
q-13 -8 -18 -15q-4 -7 -14.5 -12.5t-11.5 -6.5q-7 -7 -8.5 -13.5t4.5 -9.5q9 -5 15.5 -13t14 -12.5t22.5 -4.5q26 -1 56 8q2 0 10.5 2t14.5 4t14 5t13.5 6.5t8.5 7.5q4 7 11 4q2 -2 3 -5t-1.5 -6.5t-9.5 -4.5q-8 -2 -18 -6t-21 -8.5t-17 -6.5q-25 -10 -39 -12q-12 -2 -44 1
q-5 1 -4 -1q0 -2 9 -10q13 -12 37 -11q13 0 28 5.5t26.5 12t23 12.5t17 6.5t8.5 -6.5q0 -1 -1.5 -3t-5.5 -4l-7 -3.5l-9 -4.5l-4 -2q-15 -7 -37.5 -23t-37 -22.5t-26.5 -0.5t-37 40q-12 16 -12 7v-3q0 -12 -8.5 -28.5t-16.5 -29t-11.5 -30.5t6.5 -32q-13 -4 -35 -47.5
t-26 -73.5q-1 -9 -0.5 -35.5t-3.5 -30.5q-5 -15 -19 2q-24 28 -15 72v2q2 8 1 9t-3 -2q-20 -33 5 -86q3 -6 13.5 -14t13.5 -11q11 -12 58 -47.5t52 -39.5q14 -11 7.5 -31t-31.5 -23q5 -8 16.5 -23t15.5 -28t4 -36q24 12 3 48q-2 4 -5.5 8t-5 6t-1.5 3q2 3 7.5 5t10.5 -2
q26 -26 92 -18q74 8 98 45q13 19 19 16q6 -4 6 -27q-1 -12 -13 -48q-5 -12 -3.5 -20t12.5 -8q2 8 8.5 39t7.5 48q1 11 -3.5 38.5t-4 50.5t12.5 36zM414 575q-2 -10 4 -10q1 0 2 2q1 8 -2 15t-6 8q-5 1 -5 -4q1 -2 2 -3q2 0 3.5 -2t1.5 -6zM539 593q-6 -1 -2 -5q8 -2 10 -16
l6 3q0 8 -5.5 13t-8.5 5z" />
    <glyph glyph-name="linux-solaris" unicode="&#xe614;" 
d="M996 276.5q0 -97.5 -38 -186.5t-102.5 -153t-153 -102t-186.5 -38t-186.5 38t-153 102t-102.5 153t-38 186.5t38 186.5t102.5 153.5t153 102.5t186.5 38t186.5 -38t153 -102.5t102.5 -153.5t38 -186.5zM679 403l12 31q6 13 7 25.5t-1 18.5l-1 6q-4 13 -11.5 26t-13.5 19
l-5 6l7 -18q6 -22 0.5 -37t-15.5 -23l-11 -8l-28 -24q-11 -11 -15 -24t-3 -21l1 -8l1 -1q43 -10 82 -34q-8 14 -9 30.5t1 26.5zM765 264q-1 16 4 31.5t10 22.5l6 8l22 24q10 10 16 21.5t6 17.5l1 6q2 13 -0.5 28t-5.5 23l-3 8q1 -1 1 -21q-1 -20 -13.5 -33t-24.5 -16l-12 -3
l-35 -12q-31 -13 -36 -43q37 -26 64 -62zM936 323l-7 -19q-9 -19 -25 -26.5t-29 -6.5l-12 2q-5 1 -14.5 1.5t-16 0.5h-6.5q-15 0 -27.5 -7t-17.5 -13l-4 -7l2 -4q22 -37 34 -78q4 15 15 28t18.5 18t8.5 5l29 15q13 5 22.5 13.5t12.5 13.5l3 6q14 26 14 58zM580 376
q-11 10 -18 25t-9 24l-1 9v5t-0.5 8.5t-0.5 9v7.5v3q1 14 -2.5 26t-7.5 17l-4 6q-8 10 -19.5 19t-19.5 13l-8 4l15 -15q13 -15 13 -33t-6 -29l-7 -10l-17 -33q-13 -30 4 -56q22 4 45 3q22 0 43 -3zM422 416l-12 30q-5 14 -13 24t-13 13l-6 3q-7 5 -15.5 8t-15.5 4.5t-13 2.5
t-9 2h-4l19 -8q18 -10 25 -26.5t5 -28.5l-2 -12l-4 -37q-1 -15 5 -28t13 -18l6 -5l1 1q39 22 82 32q-15 5 -27 16t-17 19zM371 329q-16 -1 -31 5t-23 12l-7 6l-23 23q-10 11 -21 17t-17 7l-6 1q-15 2 -28 1t-22 -4l-9 -2q1 0 20 -1v0q21 -2 33.5 -15t14.5 -25l3 -12l10 -36
q5 -14 15.5 -23.5t17.5 -11.5l8 -3l1 1q27 35 64 60zM229 249l-30 13q-13 6 -25.5 8t-18.5 1l-7 -2q-12 -2 -25.5 -9t-19.5 -12l-7 -6l19 7q40 12 65 -27l1 -3q3 -5 8.5 -12t10 -12l4.5 -5q10 -11 23 -16t21 -5l8 1l1 2q12 41 36 78q-32 -14 -64 -1z" />
    <glyph glyph-name="windowsxp" unicode="&#xe615;" 
d="M431 -39l83 291q44 -35 102 -49t113.5 -9t111.5 25q11 6 9 -3q0 -4 -4 -16q-5 -13 -5 -17l-69 -242q-158 -66 -257 -21q-43 16 -84 41zM212 50q-68 0 -157 -35l84 291q160 64 261 17q4 -1 16.5 -7t18.5 -8.5t14.5 -9t10.5 -12.5t1.5 -15t-7.5 -19q-49 -167 -76 -260
q-86 60 -166 58zM534 317q6 25 19.5 71t16.5 58l47 166q43 -35 98.5 -49.5t111 -9.5t107.5 26q18 12 20 5.5t-4 -21.5l-1.5 -3t-1 -3t-0.5 -3q-7 -23 -33 -114.5t-41 -139.5q-74 -38 -156 -39t-155 40q-15 7 -28 16zM320 414q-69 1 -162 -37l82 290q167 72 282 6
q13 -5 21 -9.5t15 -11.5t6 -16.5t-9 -21.5q-62 -213 -75 -257q-85 58 -160 57z" />
    <glyph glyph-name="linuxoracle" unicode="&#xe616;" 
d="M464 290q-3 0 -4.5 -3t-2.5 -3q-3 0 -2 3q2 3 9 3zM483 289q3 1 5.5 -1.5t3.5 -1.5q5 1 -1 4q-3 1 -8 -1zM688 -80q-23 -11 -51 -36q-6 -5 -22 -5.5t-28 4.5q-6 3 -13 13t-23 10h-42q-18 0 -36 -1q-23 0 -42 -13t-31 -12q-9 0 -35.5 9t-46.5 13q-6 1 -16 2.5t-16 3
t-12.5 3t-10.5 4t-5 5.5q-4 7 1.5 20t6.5 16q0 6 -2.5 16.5t-3.5 16t3 11.5q4 3 18 4t19 4q17 9 17 25q7 -22 -10 -31q-10 -6 -26 -5q-11 1 -14 -3q-4 -4 2 -17q7 -16 7 -22q0 -4 -5.5 -14.5t-4.5 -14.5q1 -5 12 -8q6 -1 26.5 -5t31.5 -6q8 -2 23.5 -7t26 -7t17.5 -1
q17 2 24 11t4 20.5t-6.5 20t-8.5 14.5q-50 74 -68 85q-12 6 -21 -1q-4 -2 -5 5q-1 4 -1 11q1 9 4 16t7.5 14t6.5 12q3 6 9 21.5t9 23.5t9.5 18t12.5 16q35 42 39 58q-4 36 -5 93q0 27 8 45t34 31q12 6 32 6q38 1 62 -16q18 -13 29 -36.5t10 -43.5q-2 -28 9 -64
q11 -33 42 -65q18 -17 32 -48.5t19 -57.5q3 -22 0 -34.5t-9 -13.5q-3 0 -9 -8t-15.5 -15.5t-23.5 -6.5q-6 0 -10 1.5t-7 4t-4.5 4.5t-3.5 6.5t-3 5.5q-7 11 -13 9t-9 -15q-3 -12 2 -29q7 -20 1 -58q-5 -29 15.5 -37t40.5 8q18 15 28 20t33 12q22 8 27.5 15t-1 12.5
t-20.5 9.5q-16 5 -19.5 25.5t3.5 24.5q1 -9 3 -16.5t4.5 -12t6.5 -8.5t6.5 -5.5t7 -4t5.5 -3.5q33 -19 -19 -43q-3 -2 -9.5 -5t-9.5 -4zM583 34q5 5 16 5q1 17 22 19t31 -7q0 5 -17 13q5 25 4.5 32t-5.5 31q-4 14 -15.5 30.5t-22.5 22.5q7 -6 18 -25q28 -48 17 -83
q-3 -11 -16 -12q-10 -1 -12 5.5t-2.5 24.5t-3.5 32q-3 12 -6 20.5t-6 13.5t-5 7.5t-4.5 4.5l-2.5 2q-7 31 -18.5 47t-12.5 22.5t2 16t1 14.5t-14 7q-5 1 -14 5.5t-12 5.5q-2 0 -3 7.5t2.5 15t11.5 8.5q12 0 16.5 -9.5t0.5 -17.5q-3 -6 0 -8t9 0q5 1 4.5 10.5t0.5 11.5
q-4 17 -10.5 23t-17.5 8q-8 -1 -14.5 -4t-9 -7.5t-4 -9t-1 -9.5t0.5 -8.5t0.5 -5t-0.5 -1.5q-3 3 -9.5 3.5t-10.5 0t-5 1.5q0 17 -5 26.5t-14 10.5q-9 0 -13.5 -8.5t-5.5 -17.5q0 -5 1.5 -11.5t4 -11t5.5 -4.5q5 2 5 6q0 1 -2.5 1t-5 4.5t-2.5 9.5q-1 16 13 16q6 -1 9 -7
t2.5 -11.5t-0.5 -6.5q-7 -5 -9.5 -8.5t-8.5 -7t-7 -3.5q-10 -10 -2 -14q4 -2 11 -9.5t19 -7.5q14 -1 32 5q31 8 35 14q2 4 6 2q2 -1 2 -2.5t-1.5 -3.5t-4.5 -3l-33 -12q-14 -5 -22 -7q-9 -1 -22 1h-6q0 -1 6 -6q7 -7 21 -7q7 0 16 3.5t15.5 7l13 7t9.5 3.5t5 -3
q0 -3 -15 -10q-9 -4 -22 -13t-21.5 -13t-15.5 0q-5 2 -22 25q-6 7 -6 0q0 -8 -12.5 -31.5t-4.5 -37.5q-7 -2 -19.5 -27t-15.5 -42q-1 -6 -0.5 -21t-1.5 -18q-4 -10 -13 4q-11 17 -6 40l-1 5l-1 -1q-11 -19 3 -49q2 -4 8 -8.5t8 -6.5q6 -7 33 -27t29 -22q9 -7 5 -18.5
t-18 -12.5q3 -5 9.5 -13.5t8.5 -16t2 -21.5q14 7 3 28q-2 2 -4 4.5t-3 3.5t0 2t4 2.5t6 -0.5q15 -15 53 -11q42 5 56 26q7 11 11 9q3 -2 3 -15q0 -7 -7 -28q-5 -15 5 -16l4.5 22.5t4.5 27.5q1 6 -2 22t-2.5 29t7.5 21zM450 303q-2 -6 2 -6q1 0 1 1q1 5 -1 9t-3 4q-3 1 -3 -1
l1 -3q1 1 2 -0.5t1 -3.5zM521 313l-2 -2h2q4 -2 5 -10l3 2q1 4 -2.5 7t-5.5 3zM728 600h-11.5t-8 -4t0.5 -11v-107h93q1 2 5 8q9 13 2 13q-2 0 -6 -1h-75v102zM456 594l-73 -116q2 0 11 -0.5t13 1.5t6 9q3 2 6 9t6.5 11.5t9.5 4.5h41q1 2 5 8q9 13 2 13q-3 0 -6 -1h-36
l26 40l60 -95h9q14 -1 14 3q0 2 -5 7l-68 106q-3 6 -10.5 5.5t-10.5 -5.5zM597 580h84q1 2 5 8q9 13 1 13q-2 0 -5 -1h-52t-51 -3q-26 -8 -35 -34.5t2.5 -52.5t37.5 -31q6 -1 47 -1h47q1 2 5 8q10 13 2 13q-2 0 -5 -1h-46t-45 1q-19 4 -25.5 24.5t3 39t30.5 17.5zM170 600
h-49t-49 -1q-26 -6 -37.5 -31.5t-2.5 -52t34 -34.5q5 -4 51.5 -3.5t51.5 0.5q35 -2 51 32.5t-3 62.5q-15 27 -47 27zM170 498h-47t-47 1q-15 3 -22 16.5t-5.5 28.5t11.5 26t26 10h46.5t45.5 -1q20 -4 26.5 -24.5t-3.5 -39t-31 -17.5zM837 529h105q1 3 5 8q9 13 2 13
q-2 0 -6 -1h-106q4 36 55 31h63q1 2 5 8q9 13 2 13q-2 0 -6 -1h-51.5t-51.5 -3q-25 -8 -34 -34.5t2 -52.5t38 -31q6 -1 47 -1h47q1 2 5 8q9 13 2 13q-2 0 -6 -1h-44.5t-44.5 1q-11 1 -19 10t-9 20zM339 528q24 -1 32.5 19t-3 38.5t-34.5 14.5h-96v-122h7.5h7t5.5 1t3 4t-1 8
v89h43t43 -1q21 -16 0 -28q-14 -8 -29 -4h-41l71 -69q3 1 13 0q14 -1 14 1q0 1 -2 3l-47 45q7 1 14 1z" />
    <glyph glyph-name="databasemysql" unicode="&#xe617;" 
d="M743.5 242q-88.5 0 -151 -63t-62.5 -151.5t62.5 -151.5t151 -63t151.5 63t63 151.5t-63 151.5t-151.5 63zM608 158h25v-2q4 -2 10.5 -6.5t12.5 -7.5t12 -3q24 -1 60 -27q37 -28 60 -85q6 -14 12 -25q6 -7 13 -10q35 -15 61 -44q-8 -1 -23 -4l-20 -4q6 -7 7 -8
q26 -21 39 -32l6 -2v-2q0 1 -14 8t-21 10q-16 10 -24 18q-7 8 -6 11t12 5q4 1 30 5l-2 3q-34 24 -48 27t-21 18q-26 53 -35 67q-25 41 -74 60l-4 1q-9 -1 -16.5 1.5t-18 8.5t-13.5 7q-6 2 -8 2q-6 0 -8 -2q-2 -3 0 -8q1 -2 4 -6t4 -6l18 -32q16 -30 18 -35q3 -5 0 -11
q-9 -24 -4 -48q3 -17 13 -26q2 5 3.5 14t3.5 15t8 10q5 -8 15.5 -26t15.5 -28l-1 -0.5t-2 -0.5q-4 6 -13.5 17.5t-14.5 16.5q-2 -12 -2 -14q-4 -10 -8 -11q-6 -2 -13 4q-14 13 -14 37q0 15 5 37q2 9 -2 15l-18 36q-7 16 -10 20q-5 6 -7.5 9.5t-5 9.5t-1.5 11.5t4 11.5z
M662 112q8 -3 8 -4q1 -1 2 -10h-2h-1q-1 1 -4 5.5t-5 6.5q1 0 1.5 1zM514 585q-106 -1 -193.5 -19.5t-136 -48.5t-45 -65t58.5 -64t146 -45.5t196.5 -15t192.5 19.5t136 48.5t45 64.5q-6 54 -123 90.5t-277 34.5zM140 440v-140q-1 -5 0 -10q5 -53 122.5 -89t277.5 -35
q1 1 1.5 0.5l0.5 -0.5q51 69 135 93q103 29 197 -21q37 25 40 52v0v142q-5 -51 -113 -87t-261 -37q-160 -2 -277 34t-123 90v8v0zM140 276v-141q-1 -5 0 -9q5 -49 107 -84t247 -40q-6 75 32 140q-155 1 -268 37t-118 88v9v0zM914 266q-2 -19 -22 -38q15 -10 22 -16v54z
M140 111v-141q-1 -4 0 -8q3 -35 58 -64.5t146 -45.5t196 -15q20 0 38 1q-54 47 -74 113q-4 13 -7 27q-146 4 -249 39.5t-108 84.5v9v0z" />
    <glyph glyph-name="databaseoracle" unicode="&#xe618;" 
d="M513 585q161 2 278.5 -34.5t122.5 -89.5q4 -35 -45 -65.5t-136 -48.5t-193 -19q-160 -2 -277.5 34t-122.5 90q-4 35 44.5 65t136 48.5t192.5 19.5zM140 291q-1 4 0 9v140v0q-1 -4 0 -9q5 -53 122.5 -89.5t278.5 -34.5q153 2 260.5 38t112.5 86v-140v0q-5 -51 -113 -87
t-261 -38q-160 -1 -277.5 35t-122.5 90zM140 126q-1 5 0 9v141v0q-1 -5 0 -9q5 -53 122.5 -89.5t278.5 -34.5q153 1 260.5 37t112.5 87v-141v0q-5 -50 -113 -86t-261 -38q-160 -2 -277.5 34.5t-122.5 89.5zM140 -39q-1 5 0 9v141v0q-1 -4 0 -9q5 -53 122.5 -89.5
t278.5 -34.5q153 2 260.5 38t112.5 86v-141v0q-5 -50 -113 -86t-261 -38q-160 -2 -277.5 34.5t-122.5 89.5zM709 747h-16v-108h77l11 18h-72v90zM484 742l-60 -103h20l18 31h39l10 18h-39l21 35l50 -84h20l-61 103q-3 5 -9 5t-9 -5zM601 729h69l10 18h-80q-20 0 -33 -15.5
t-13 -38.5t13 -38.5t33 -15.5h68l10 18h-77q-14 0 -22 10.5t-8 26t8 25.5t22 10zM249 747h-71q-21 0 -33.5 -15.5t-12.5 -38.5t12.5 -38.5t33.5 -15.5h71q20 0 33 15.5t13 38.5t-13 38.5t-33 15.5zM249 657h-71q-14 0 -22 10.5t-8 26t8 25.5t22 10h71q13 0 21 -10t8 -25.5
t-8 -26t-21 -10.5zM799 685h87l10 17h-97q5 27 28 27h70l10 18h-80q-20 0 -33 -15.5t-13 -38.5t13 -38.5t33 -15.5h67l11 18h-78q-24 0 -28 28zM388 683q13 0 21.5 9.5t8.5 22.5t-8.5 22.5t-21.5 9.5h-84v-108h19v90h65q6 0 10 -4t4 -10t-4 -10t-10 -4h-52l59 -62h24l-43 44
h12z" />
    <glyph glyph-name="databasesql" unicode="&#xe619;" 
d="M504 592q153 2 266 -32.5t118 -85.5q3 -33 -43.5 -62t-130.5 -46.5t-184 -18.5q-154 -2 -266.5 33t-118.5 85q-3 34 43.5 62.5t130.5 46t185 18.5zM145 312v8v135h1q-1 -5 0 -9q5 -51 117.5 -85.5t266.5 -32.5q146 1 249.5 35.5t108.5 82.5v-134v0q-5 -48 -108.5 -82.5
t-249.5 -36.5q-154 -1 -266.5 33.5t-118.5 85.5zM145 155v8v135h1q-1 -5 0 -9q5 -51 117.5 -85.5t266.5 -32.5q146 1 249.5 35.5t108.5 82.5v-134v0q-5 -48 -108.5 -82.5t-249.5 -36.5q-154 -2 -266.5 33t-118.5 86zM145 -2v8v135h1q-1 -5 0 -9q5 -51 117.5 -85.5
t266.5 -33.5q146 2 249.5 36.5t108.5 82.5v-134v0q-5 -48 -108.5 -82.5t-249.5 -36.5q-154 -2 -266.5 33t-118.5 86zM164 681q13 -9 28 -9q9 0 13 2.5t4 6.5t-3 7t-18 8q-24 9 -24 26q0 12 10.5 18.5t28.5 6.5q15 0 25 -3v-18q-11 6 -24 6q-8 0 -12.5 -2.5t-4.5 -6.5
q0 -3 3 -6t16 -8q15 -5 20.5 -11.5t5.5 -14.5q0 -13 -10 -19.5t-29 -6.5q-18 0 -29 5v19zM347 634q-6 -1 -15 -1q-10 0 -19.5 4.5t-24.5 19.5q-21 1 -33.5 13.5t-12.5 30.5q0 21 14 33.5t37 12.5q21 0 34 -12t13 -32q0 -16 -8 -27t-23 -16q6 -6 12.5 -9t15.5 -3q6 0 10 2
v-16zM265 702q0 -13 7 -21t19 -8q13 0 20 7.5t7 21.5t-7 21.5t-19 7.5t-19.5 -8t-7.5 -21zM416 659h-59v87h22v-72h37v-15zM465 681q12 -9 27 -9q9 0 13.5 2.5t4.5 6.5t-3.5 7t-18.5 8q-24 9 -24 26q0 12 10.5 18.5t28.5 6.5q15 0 25 -3v-18q-10 6 -24 6q-8 0 -12.5 -2.5
t-4.5 -6.5q0 -3 3 -6t16 -8q15 -5 20.5 -11.5t5.5 -14.5q0 -13 -10 -19.5t-29 -6.5q-17 0 -28 5v19zM610 685h-47q1 -15 20 -15q12 0 21 5v-13q-10 -5 -25 -5q-18 0 -27.5 8.5t-9.5 23.5t10.5 24t25.5 9t23.5 -8t8.5 -22v-7zM591 696q0 14 -13 14q-6 0 -10 -4t-5 -10h28z
M669 704q-3 2 -9 2q-7 0 -11 -4.5t-4 -12.5v-30h-21v62h21v-12v0q5 13 19 13q3 0 5 -1v-17zM753 721l-27 -62h-24l-25 62h22l13 -39q2 -7 2 -11h1q0 4 2 10l14 40h22zM824 685h-47q1 -15 20 -15q12 0 21 5v-13q-10 -5 -25 -5q-18 0 -27 8.5t-9 23.5t10 24t25 9t23.5 -8
t8.5 -22v-7zM805 696q0 14 -13 14q-6 0 -10 -4t-5 -10h28zM884 704q-4 2 -10 2q-7 0 -11 -4.5t-4 -12.5v-30h-21v62h21v-12v0q5 13 19 13q4 0 6 -1v-17z" />
    <glyph glyph-name="filesbag" unicode="&#xe61a;" 
d="M808 316v-38q0 -7 -4.5 -11.5t-10.5 -4.5h-60q-7 0 -11.5 4.5t-4.5 11.5v14l-202 -52l-196 50v-12q0 -7 -4.5 -11.5t-10.5 -4.5h-60q-7 0 -11.5 4.5t-4.5 11.5v36l-146 39v-306q0 -34 25 -58t61 -24h693q37 0 61.5 24t24.5 58v306zM862 -78h-694q-39 0 -62.5 16t-23.5 48
v-47q0 -33 24.5 -55t61.5 -22h694q37 0 61 22t24 56v46q0 -32 -23.5 -48t-61.5 -16zM882 571h-735q-39 0 -66.5 -25t-27.5 -60v-85l175 -45v21q0 7 5 11.5t11 4.5h60q6 0 10.5 -4.5t4.5 -11.5v-45l196 -50l203 52v43q0 7 4.5 11.5t10.5 4.5h60q7 0 11.5 -4.5t4.5 -11.5v-19
l169 43v85q-1 35 -29 60t-67 25zM336 601v37q0 25 17.5 43t43.5 18h236q25 0 43 -18t18 -43v-37h63v60q0 37 -25.5 62.5t-61.5 25.5h-310q-36 0 -61.5 -25.5t-25.5 -62.5v-60h63z" />
    <glyph glyph-name="ftp" unicode="&#xe61b;" 
d="M280 -133v32h-169v64h169v31h141v64h64v64h-374v512h799v-512h-361v-64h64v-64h141v-31h156v-64h-156v-32h-474zM344 281v76h63v34h-63v50h69v33h-111v-193h42zM527 281v160h55v33h-152v-33h56v-160h41zM650 281v67h21q33 0 54.5 17.5t21.5 47.5q0 61 -72 61h-66v-193h41
zM650 380v62h18q36 0 36 -31t-36 -31h-18zM111 666v64h367v-64h-367z" />
    <glyph glyph-name="ibmnotes" unicode="&#xe61c;" 
d="M45 212q-22 128 22.5 247t142 200.5t225.5 103.5t247 -22.5t200.5 -142t103.5 -225.5t-22.5 -247t-142 -200.5t-225.5 -103.5t-247 22.5t-200.5 142t-103.5 225.5zM402 131v205q0 13 -9 22.5t-22 9.5h-145q-25 0 -43 -18.5t-18 -43.5v-4q0 -25 18 -43t43 -18h50v-110
q0 -25 18 -43t43 -18h4q25 0 43 18t18 43zM579 96v246q0 10 -7.5 18t-17.5 8h-76q-10 0 -17.5 -7.5t-7.5 -18.5v-246q0 -10 7.5 -17.5t17.5 -7.5h76q10 0 17.5 7.5t7.5 17.5zM756 132v111h49q25 0 43 18t18 43v4q0 24 -18 42t-43 18h-145q-13 0 -22 -9t-9 -22v-205
q0 -25 18.5 -43t43.5 -18h4q25 0 43 18t18 43zM401 448.5q0 25.5 -18 43.5t-43.5 18t-43.5 -18t-18 -43.5t18 -43.5t43.5 -18t43.5 18t18 43.5zM753 448.5q0 25.5 -18 43.5t-43 18t-43 -18t-18 -43.5t18 -43.5t43 -18t43 18t18 43.5zM578 454q0 25 -18 43t-43.5 18
t-43.5 -18t-18 -43t18 -43t43.5 -18t43.5 18t18 43z" />
    <glyph glyph-name="kingdee" unicode="&#xe61d;" 
d="M196 841q-69 0 -117 -48t-48 -117v-593q0 -68 48 -116t117 -48h632q69 0 117.5 48t48.5 116v593q0 69 -48.5 117t-117.5 48h-632zM220 621l18 -4l-0.5 -1t-1.5 -2l-2 -2v0q34 -39 86 -58q-2 -4 -5.5 -9t-3.5 -6q-11 4 -25 12q-1 0 -2 1l-2 2v-11h-51v-27h70v-14h-70v-48
h83v-14h-180v14h83v48h-69v14h69v27h-51v10q-5 -3 -22 -12q-4 -1 -7 -4q-1 3 -10 14q66 29 93 70zM365 618h13v-33h24v-69h-24v-40q7 1 16 4q-1 0 -1 1q-1 4 -2 6q-1 3 -3 7.5l-2 4.5l12 4q1 -2 3.5 -8.5t4.5 -10.5q1 -5 8 -19l-12 -5q-1 4 -4 7q-18 -4 -30 -6q-7 -1 -34 -6
l-2 14q4 1 12 1q14 4 21 4v42h-13v-10h-11v79h24v33zM452 618h12v-26h24v26h14v-26h21v-12h-21v-32h-50v32h-20v-48h84v-11h-48v-18h53v-12h-43q17 -23 47 -36q-1 -1 -2.5 -3t-3.5 -4.5t-3 -4.5q-31 16 -48 41v-51h-12v52q-18 -25 -52 -44q0 1 -2 2q-5 8 -8 10q33 13 52 38
h-38v12h48v18h-38v59h-11v12h11v21h14v-21h20v26zM224 601q-24 -27 -54 -45h108q-33 20 -54 45zM464 580v-20h24v20h-24zM352 572v-44h13v44h-13zM378 572v-44h13v44h-13zM169 497l5.5 -5.5l8.5 -8.5q2 -2 5 -5.5t5.5 -5.5t3.5 -4l-13 -10q-23 28 -26 31zM280 497l12 -8
q-23 -25 -30 -31l-12 10q12 9 30 29zM130 325h42l-16 -55l59 55h55l-64 -55l24 -89h-50l-12 59l-28 -24l-10 -35h-42zM286 325h38l-8 -28h-38zM666 325h37l-42 -144h-35l4 15q-9 -9 -16 -13q-10 -4 -20 -4q-20 0 -26 16t1 39q8 26 23.5 40t33.5 14q8 0 15 -4q6 -2 9 -9z
M408 288q15 0 20.5 -10t-0.5 -31l-19 -66h-37l16 57q3 11 1 14q-2 4 -9 4q-6 0 -12 -5.5t-10 -19.5l-14 -50h-38l30 104h36l-6 -17q12 11 20 15q10 5 22 5zM498 288q12 0 18 -4t10 -14l4 15h36l-30 -99v-4q-3 -10 -10 -19q-6 -8 -15 -14q-7 -5 -19 -8q-13 -3 -23 -3
q-29 0 -37.5 9.5t-3.5 25.5q0 1 0.5 3t1.5 3l35 -5q0 -6 1 -7q4 -3 10 -3q8 0 14 4q5 5 8 16l5 16q-7 -6 -14 -10q-10 -5 -21 -5q-19 0 -26 19q-4 12 2 34q8 25 22 37q15 13 32 13zM766 288q20 0 30.5 -7t13.5 -20q2 -12 -4 -33l-1 -5h-75q-2 -10 0 -14q4 -7 12 -7q5 0 12 3
q5 3 8 6l36 -3q-13 -16 -26.5 -22.5t-36.5 -6.5q-20 0 -29 5.5t-12 18.5q-4 13 1 30q7 25 26 40t45 15zM892 288q21 0 31 -7t13 -20q2 -11 -4 -33l-1 -5h-75q-1 -10 1 -14q4 -7 12 -7q4 0 11 3l9 6l35 -3q-13 -16 -27 -23q-13 -6 -35 -6q-21 0 -30 5q-9 6 -12 19q-4 13 1 30
q7 25 26 40t45 15zM274 285h38l-30 -104h-38zM760 264q-9 0 -16 -7q-5 -5 -8 -15h36q3 12 -0.5 17t-11.5 5zM886 264q-9 0 -16 -7q-4 -4 -8 -15h36q3 12 -0.5 17t-11.5 5zM503 259q-7 0 -13 -5.5t-10 -18.5q-3 -11 0 -17t10 -6t14 6q6 6 10 17q3 12 0 18q-4 6 -11 6z
M629 258q-7 0 -13 -5.5t-10 -20.5q-4 -12 -1 -18t9 -6q8 0 14 6q7 7 11 19q4 13 0.5 19t-10.5 6z" />
    <glyph glyph-name="office" unicode="&#xe61e;" 
d="M175 862q-73 0 -124.5 -51.5t-51.5 -124.5v-632q0 -73 51.5 -124.5t124.5 -51.5h675q73 0 124.5 51.5t51.5 124.5v632q0 73 -51.5 124.5t-124.5 51.5h-675zM583 675l171 -60v-496l-166 -54l-299 120l294 -44l-6 438l-190 -51l-10 -294l-99 -44l-7 364z" />
    <glyph glyph-name="printer" unicode="&#xe61f;" 
d="M61 430q0 44 36 80t79 36h58v-116v-58h578v58v116h58q43 0 79 -36t36 -80v-289q0 -43 -36 -79t-79 -36h-58v115v58h-578v-58v-115h-58q-43 0 -79 36t-36 79v289v0zM292 26v115h462v-115v-174h-462v174v0zM754 546v-116h-462v116v173h462v-173v0zM350 83v-57h346v57h-346
v0zM350 -32v-58h346v58h-346v0zM350 -32z" />
    <glyph glyph-name="remote" unicode="&#xe620;" 
d="M100 743q-31 0 -52.5 -21t-21.5 -52v-496q0 -31 21.5 -52.5t52.5 -21.5h316q-5 -53 -31 -88t-61 -35h-36v-30h452v30h-37q-35 0 -60.5 35t-31.5 88h317q30 0 51.5 21.5t21.5 52.5v496q0 31 -21.5 52t-51.5 21h-828v0zM71 699h885v-452h-885v452zM513.5 638
q-69.5 0 -118.5 -49.5t-49 -119t49 -118.5t118.5 -49t119 49t49.5 118.5t-49.5 119t-119 49.5zM445 587l81 -81l-81 -81l-16 16l65 65l-65 65zM582 515l17 -16l-65 -65l65 -65l-17 -17l-81 82z" />
    <glyph glyph-name="vdi" unicode="&#xe621;" 
d="M100 743q-31 0 -52.5 -21t-21.5 -52v-496q0 -31 21.5 -52.5t52.5 -21.5h316q-5 -53 -31 -88t-61 -35h-36v-30h452v30h-37q-35 0 -60.5 35t-31.5 88h317q30 0 51.5 21.5t21.5 52.5v496q0 31 -21.5 52t-51.5 21h-828v0zM71 699h885v-452h-885v452zM171 609l99 -293h75
l101 293h-69l-61 -204q-4 -14 -6 -30h-1q-1 14 -6 30l-61 204h-71zM482 609v-293h103q71 0 114 40q42 41 42 110q0 143 -156 143h-103zM790 609v-293h66v293h-66zM548 555h32q43 0 67 -24q25 -25 25 -66q0 -44 -25 -70q-24 -26 -67 -26h-32v186z" />
    <glyph glyph-name="yonyou" unicode="&#xe622;" 
d="M175 862q-73 0 -124.5 -51.5t-51.5 -124.5v-632q0 -73 51.5 -124.5t124.5 -51.5h675q73 0 124.5 51.5t51.5 124.5v632q0 73 -51.5 124.5t-124.5 51.5h-675zM604 651q3 1 7 0h11h11q10 0 14 -4t2 -15q-1 -8 -3 -15h15h189q13 0 15.5 -2.5t2.5 -16.5v-3v-3.5v-2.5
q1 -8 -2.5 -11t-11.5 -3h-146h-65q-1 -4 -2.5 -14.5t-2.5 -16.5q16 -1 19 -1h155t26.5 -9.5t0.5 -30.5q-7 -31 -42 -74q-5 -7 -20 -24q1 -1 8 -6t8.5 -6.5t7.5 -5.5t9 -5.5t8.5 -4t9.5 -3.5t9.5 -1.5t10.5 -0.5q9 1 12.5 -2.5t2.5 -12.5v-6q0 -15 -2 -17t-14 -3h-10
q-42 -1 -87 31q-1 1 -5 4t-6 4q-1 -1 -16.5 -10.5t-22.5 -14.5q-22 -15 -63 -12q-6 0 -8 9q-3 12 0 21q1 3 4 6t6 3q27 -1 63 29q-8 11 -17.5 23t-19.5 26.5t-17 23.5q1 1 3 4q5 0 16.5 1t20 0.5t15.5 -2.5q4 -1 7.5 -4.5t8 -10t6.5 -8.5t7 -8t9 -11q28 42 36 55q8 11 -6 11
h-136q-38 -129 -41 -136q-8 -24 -22 -31.5t-39 -1.5q-10 3 -5 14q27 65 30 76q12 47 27 131q3 16 0 19t-21 3h-9q-37 0 -24 36q2 6 11 6q17 1 40 0q12 0 12 11q-1 2 0 5t1 4q0 12 9 14zM203 636h43h51h43h37h43.5h37.5q12 0 16 -1q13 -2 16.5 -6t3.5 -17v-261
q0 -10 -3.5 -14.5t-14.5 -4.5h-30h-29q-14 0 -13 13v11q-1 9 2.5 13t13.5 4q15 -1 17.5 2t2.5 19q0 21 -4 25t-26 3h-47q0 -7 -0.5 -19t-0.5 -21.5t1 -17.5q0 -14 -14 -14q-16 1 -30 0q-12 0 -12 13v48q0 12 -12 11h-57q-9 0 -10 -9q-5 -29 -11 -60q-3 -14 -7.5 -17.5
t-18.5 -3.5q-6 1 -17.5 2.5t-14.5 1.5q7 28 7 29q10 81 11 103v142q0 15 5.5 20.5t20.5 5.5zM265 591q-28 0 -32.5 -4.5t-2.5 -33.5l1 -2t1 -3h67q2 0 4.5 2t2.5 3q1 28 -1 35q-1 1 -25 3q-2 1 -4.5 1t-5.5 -0.5t-5 -0.5zM363 591v-42h77q0 27 -1 33q0 3 -2.5 6t-4.5 3h-69z
M230 507v-32q-1 -7 2 -10t9.5 -2.5t24 0.5h24.5q15 1 16 5q0 9 -2 38q0 1 -5 1h-21.5h-25.5h-22zM364 506v-44q52 0 68 1q2 0 4.5 3t2.5 6q1 5 1 34h-76zM322 226q26 0 39.5 -14t13.5 -38t-13.5 -38t-39.5 -14q-25 0 -39 14t-14 38t14 38t39 14zM703 226q26 0 39 -14
q15 -14 15 -38t-15 -38q-14 -14 -39 -14t-39 14t-14 38q0 25 14 38q14 14 39 14zM468 226q16 0 24 -9q9 -10 9 -28v-64h-31v49q0 6 -1 12q0 5 -2 8q-2 4 -5 5q-3 2 -9 2q-4 0 -9 -2t-9 -4v-70h-31v98h31v-11q8 7 16 10q7 4 17 4zM143 223h32l23 -63l23 63h32l-54 -134h-34
l15 37zM524 223h32l24 -63l22 63h32l-54 -134h-34l16 37zM784 223h31v-49q0 -6 1 -12q0 -5 2 -8t5 -5q4 -1 10 -1q3 0 8 1q6 2 10 5v69h31v-98h-31v11q-9 -7 -16 -10t-17 -3q-17 0 -25.5 9t-8.5 27v64zM322 204q-5 0 -8 -1t-6 -4.5t-5 -9.5t-2 -15q0 -7 2 -14q2 -6 4.5 -9.5
t6 -5t9.5 -1.5q3 0 8 2q3 1 6 4q3 5 5 9q1 4 1 15q0 8 -2 14q-1 7 -3.5 10t-6.5 5q-5 1 -9 1zM703 204q-4 0 -8 -1q-3 -1 -6 -5q-3 -2 -5 -9q-2 -8 -2 -15t2 -14q1 -6 4 -10q2 -3 7 -4q4 -2 8 -2t8 2q5 1 7.5 4.5t4.5 8.5q1 6 1 15q0 8 -1 14q-2 7 -5 10q-2 3 -7 5
q-4 1 -8 1z" />
    <glyph glyph-name="windows2k" unicode="&#xe623;" 
d="M254 680q-1 0 -9 0.5t-10 0t-7 -2t-6 -5.5t-1 -10q-1 -4 6 -6q18 -5 23 4q2 3 1 6q2 7 3 13zM319 645q-7 -2 -15 -0.5t-16 1t-11 -6.5q-6 -13 -4 -22t18 -5q10 -3 15.5 1t7.5 9.5t3 16.5zM220 610q-12 3 -22 -3.5t-4 -16.5q16 -2 20.5 1t5.5 19zM380 598q-28 -1 -55 -1
q-1 -4 -5.5 -14.5t-4 -16t11.5 -2.5q5 1 15 -0.5t17.5 -1t11.5 5.5zM460 569q-35 0 -71 -1l-20 -44q33 0 67 -1zM284 561q-2 -1 -14 0t-16.5 -2.5t-3.5 -13.5q-6 -9 10 -10q19 -1 20 8zM534 544q-37 -1 -74 -1l-21 -56l70 -2zM631 540q-42 0 -84 -1l-31 -75q42 -1 83 -2z
M649 537q-16 -39 -32 -77q81 7 131 -8l-66 -165q-4 1 -25.5 4.5t-31 4.5t-26 2.5t-29 -1t-22.5 -8.5l-22 -54q108 12 129 -16l-64 -158q-3 1 -25.5 5t-31.5 5t-26 2t-29.5 -1.5t-22.5 -8.5l-22 -53q187 -11 293 -102q8 -3 32 -31q23 -25 29 -9q2 4 3 9l207 515q-4 3 -11 10
q-32 29 -51 44.5t-50.5 34.5t-62.5 27q-69 22 -174 29zM193 531q-13 4 -22.5 -2.5t-3.5 -17.5q15 -1 19.5 2t6.5 18zM345 518q-23 0 -46 -1q0 -3 -2 -8.5t-3.5 -9.5t-1.5 -8.5t3.5 -4.5t10.5 1q2 0 14 -1t16.5 2t3.5 13zM253 488q-2 0 -14 0.5t-16.5 -2.5t-3.5 -13
q-7 -10 10 -11q18 -1 19 6zM420 487l-55 -1q-1 -4 -5.5 -14t-6.5 -15.5t2 -8.5h23.5h23.5zM499 461q-31 0 -62 -1l-17 -44h60zM169 454q-7 -1 -15.5 0.5t-15.5 -1t-6 -11.5q-4 -7 -3.5 -10.5t4 -4t8.5 -1t10.5 0.5t9.5 0q3 4 5 14.5t3 12.5zM512 454l-25 -64q41 -1 82 -1
l26 64q-41 0 -83 1zM314 442q-23 0 -46 -1l-3 -9t-3 -9.5t-1 -8t3 -4.5t10 1q3 0 15 -1t16.5 2t3.5 13q3 8 5 17zM803 436q22 -8 33.5 -13t30.5 -15t30 -22.5t14 -26.5l-65 -155q-11 17 -31.5 30t-46.5 24t-34 15zM225 417q-7 -2 -15.5 -0.5t-16.5 0.5t-10 -8
q-7 -15 -3 -21.5t20 -3.5q7 0 10.5 -1t6 4t3.5 7.5t2.5 9.5t1.5 9l1 3v1zM390 414q-27 -1 -55 -1q0 -4 -5 -14t-6.5 -15.5t2.5 -8.5h23.5h23.5zM467 386q-29 0 -58 -1q-1 -4 -5 -13t-6.5 -16t-1.5 -11h30.5h22.5zM483 380l-27 -66q41 0 82 -1l27 66zM129 379q-12 4 -22 -2.5
t-4 -17.5q16 -1 20.5 2t5.5 18zM289 371l-55 -1q-1 -4 -5.5 -14.5t-4 -16t11.5 -2.5q5 1 15 -0.5t17.5 -1t11.5 5.5q4 15 9 30zM362 341q-33 -1 -66 -1q-9 -23 -18 -45q32 0 65 -1zM193 336q-2 0 -14 0.5t-16.5 -2.5t-3.5 -13q-7 -10 10 -11q18 -1 19 6q3 10 5 20zM443 315
q-39 -1 -77 -1l-20 -54l74 -2zM452 304l-25 -64q40 0 80 -1l27 64q-41 1 -82 1zM102 300q-13 4 -22.5 -2.5t-4.5 -16.5q16 -2 20.5 1t6.5 18zM257 298h-46l-3 -9t-3 -9.5t-1.5 -8t3 -5t10.5 0.5q3 0 14.5 -1t16 2t4.5 13q2 9 5 17zM162 260q-3 0 -14.5 0.5t-16 -2.5
t-3.5 -13q-7 -10 10 -11q18 -1 19 6zM326 259h-53q0 -4 -6 -15q-11 -19 -2 -20q2 0 4 1q8 2 16 0t16.5 -0.5t11.5 7.5q6 14 13 27zM407 232l-63 -1l-16 -44h32.5h26.5zM423 230l-26 -64l80 -2l26 65zM74 229q-7 -2 -15.5 -0.5t-15.5 -1t-6 -11.5q-4 -6 -3.5 -10t4.5 -4.5
t9 -0.5t10 0.5t9 -0.5q3 4 5.5 14.5t2.5 13.5zM227 216q-23 0 -46 -1q-1 -3 -3 -8.5t-3 -9.5t-1.5 -8.5t3 -4.5t10.5 1q3 0 14.5 -1t16.5 2t4 13zM715 214q21 -8 33 -13t31 -15t29.5 -22.5t14.5 -26.5l-66 -155q-10 17 -30.5 30t-47 24t-33.5 15zM137 189q-7 -2 -15 -0.5
t-16 0.5t-11 -6q-6 -13 -4 -22t18 -5q10 -3 15.5 1t7.5 9.5t3 16.5zM296 187q-26 0 -53 -1q0 -3 -6 -15q-10 -19 -2 -19h4q8 2 16 0.5t16.5 -0.5t11.5 7zM375 157l-58 -1q-1 -5 -5 -13.5t-6.5 -16t-1.5 -11.5q10 0 29.5 0.5t23.5 0.5zM393 156l-27 -65l80 -2l27 66
q-40 0 -80 1zM200 143q-27 -1 -55 -1q0 -4 -5 -14.5t-4 -16t11 -3.5q5 1 15 0t18 -0.5t11 5.5zM268 116q-31 -1 -62 -1l-17 -44q31 -1 61 -1zM358 89q-40 -1 -80 -1l-21 -56l78 -2zM363 81l-30 -73q40 0 80 1l29 71q-40 0 -79 1z" />
    <glyph glyph-name="rename" unicode="&#xe624;" 
d="M64 684v-768h896v768h-896zM128 620h768v-640h-768v640zM192 556v-512h384v512h-384zM672 556q-17 -1 -26.5 -16.5t-1.5 -29.5q10 -22 38 -18h22v-384h-32q-17 -1 -26.5 -15.5t-1.5 -28.5q5 -10 15.5 -16t22.5 -4h60h60q16 2 25.5 16t2.5 28q-4 10 -16 16t-24 4h-11h-11
v384h17h17q16 2 25.5 16t2.5 28q-4 10 -16 16t-24 4h-59h-59z" />
    <glyph glyph-name="squareminus" unicode="&#xe625;" 
d="M196 700v-632h632v632h-632zM248 648h528v-528h-528v528zM322 410q-10 -1 -17 -8.5t-7 -17.5q0 -11 8 -18.5t19 -7.5h3h369q10 0 18 7.5t8 18.5t-8 18.5t-18 7.5h-370q0 3 -2.5 3t-2.5 -3z" />
    <glyph glyph-name="squareminusgroup" unicode="&#xe626;" 
d="M143 648v-633h633v633h-633zM196 595h527v-527h-527v527zM354 753v-53h474v-474h53v527h-527zM248 358h422v-53h-422v53z" />
    <glyph glyph-name="squareplus" unicode="&#xe627;" 
d="M196 700v-632h632v632h-632zM248 648h528v-528h-528v528zM505 597q-4 3 -10 3q-8 0 -13.5 -5.5t-5.5 -12.5q0 -10 8 -15v-157h-157q0 3 -2.5 3t-2.5 -3q-10 -1 -17 -8.5t-7 -17.5q0 -11 8 -18.5t19 -7.5h3h156v-160q0 -11 7.5 -19t18.5 -8t19 8t8 19v160h160q10 0 18 7.5
t8 18.5t-8 18.5t-18 7.5h-160v157q2 0 2 2.5t-2 2.5q4 5 4 12q0 8 -6 14t-14 6q-10 0 -16 -7v0z" />
    <glyph glyph-name="squareplusgroup" unicode="&#xe628;" 
d="M166 631v-593h593v593h-593zM215 582h495v-495h-495v495zM456 534q-4 3 -10 3q-7 0 -12 -5t-5 -12q0 -9 7 -14v-147h-146q0 3 -2.5 3t-2.5 -3q-10 -1 -16.5 -8t-6.5 -16q0 -11 7.5 -18t17.5 -7h3h146v-150q0 -10 7.5 -17.5t17.5 -7.5t17.5 7.5t7.5 17.5v150h150
q10 0 17 7t7 17.5t-7 17.5t-17 7h-150v147q2 0 2 2.5t-2 2.5q4 5 4 11q0 8 -5.5 13.5t-13.5 5.5q-9 0 -15 -7v0zM364 730v-49h445v-445h49v494h-494z" />
    <glyph glyph-name="lightball" unicode="&#xe629;" 
d="M518 801q-82 2 -157.5 -39t-125.5 -112t-60 -155q-12 -80 14.5 -160t80.5 -144q80 -109 69 -239q4 -62 54 -106t110 -38q108 -8 157 53q24 28 30 58.5t6 93.5q0 52 26 108t67 103q57 78 71.5 174.5t-23.5 186.5q-39 96 -128.5 157t-190.5 59zM518 692q95 2 169.5 -69.5
t77.5 -169.5q6 -109 -81 -208q-13 -12 -25 -40t-17 -50l-5 -22h-248q-3 43 -23 81t-54 83q-47 71 -40 161.5t65 151.5q35 39 83 61t98 21zM411 36q40 0 113.5 -0.5t97.5 -0.5q4 -81 -33 -113q-24 -23 -60 -27t-67 13.5t-43 50.5q-4 9 -6 19.5t-2 18v21v18.5z" />
    <glyph glyph-name="restart" unicode="&#xe62a;" 
d="M498 835q-27 1 -43 -21.5t-11 -48.5q0 -12 -0.5 -72.5t1.5 -73.5q4 -24 25.5 -35.5t46.5 -7.5q27 -1 43 21.5t12 48.5q-1 12 -0.5 72.5t-1.5 73.5q-4 24 -25 35t-47 8zM231 724q-21 0 -39 -15.5t-27 -36.5q-5 -8 -2.5 -18.5t4.5 -16.5t9 -15t12 -14t13 -12.5t12 -12.5
l36.5 -36.5t48.5 -44.5q26 -15 53 1.5t38 44.5q5 8 2.5 18.5t-4.5 16.5t-9 15t-12 13.5t-13 12.5t-12 13q-6 5 -36.5 36t-48.5 45q-12 6 -25 6zM784 724q-16 0 -30 -9.5t-29.5 -26.5t-22.5 -23q-4 -6 -32 -33t-40 -43q-14 -26 2 -53t44 -38q9 -5 19 -2.5l16 4t15 9t14 12
t12.5 13t12.5 12.5l36.5 36.5t44.5 48.5q15 26 -1.5 53t-44.5 38q-8 2 -16 2zM106 443q-26 1 -42 -21t-12 -48q-3 -27 19 -45t48 -14q13 1 74.5 0.5t74.5 1.5q24 4 35 25.5t8 46.5q1 27 -21.5 43t-48.5 11h-135zM759 443q-27 1 -43 -21t-12 -48q-2 -27 19.5 -45t47.5 -14
q13 1 74.5 0.5t74.5 1.5q24 4 35.5 25.5t7.5 46.5q1 27 -21.5 43t-48.5 11h-134zM323 263q-16 0 -30 -9.5t-29.5 -27t-22.5 -23.5q-5 -5 -32.5 -32t-39.5 -43q-14 -26 2 -53t44 -38q8 -5 18.5 -2.5t16.5 4t15 9t13.5 12t12.5 13t13 12.5q5 6 36 36.5t45 48.5q14 26 -2 53
t-44 38q-8 2 -16 2zM692 263q-21 0 -38.5 -15.5t-27.5 -36.5q-5 -9 -2.5 -19t4.5 -16t9 -15t12 -14t13 -12.5t12 -12.5q7 -6 37 -36.5t48 -44.5q26 -15 53 1.5t38 44.5q5 8 2.5 18.5t-4 16.5t-9 15t-12 13.5t-13 12.5t-12.5 13q-6 5 -36.5 36t-48.5 45q-12 6 -25 6zM498 183
q-27 1 -43 -21.5t-11 -48.5q0 -12 -0.5 -72.5t1.5 -73.5q4 -24 25.5 -35.5t46.5 -7.5q27 -1 43 21.5t12 48.5q-1 12 -0.5 72.5t-1.5 72.5q-4 25 -25 36t-47 8z" />
    <glyph glyph-name="tag" unicode="&#xe62b;" 
d="M27 280q-24 -23 -24 -54.5t17 -58t43 -43.5q16 -16 103.5 -104t135.5 -132q34 -21 70 -9.5t59 43.5l252.5 252.5t309.5 311.5q19 24 24.5 59.5t2.5 66t0 66.5q0 16 1 52t0.5 63t-3.5 52q-18 64 -126 53q-15 -1 -102 -1t-132 -4q-23 -9 -42.5 -25.5t-42.5 -41t-35 -35.5
l-511 -511v0zM751 770q26 29 67 30.5t73.5 -24t36.5 -64.5q5 -27 -6 -53t-32.5 -42.5t-48.5 -23.5t-53 5q-33 12 -52 43.5t-15.5 68t30.5 60.5z" />
    <glyph glyph-name="internetip" unicode="&#xe62c;" horiz-adv-x="1030" 
d="M578 782q-146 3 -269.5 -90.5t-161.5 -234.5q-27 -97 -11 -195h95q-8 32 -8 84.5t16 64.5l78 -77l-12 -72q20 0 112 0.5t112 -0.5q19 -12 22 -4t-3 23q-1 4 -1.5 6.5t-1.5 5.5t-1 6q-2 15 -12 28.5t-27.5 29t-23.5 22.5q-23 32 -59 26.5t-46 -43.5q-4 -11 -15 14
q-8 19 -11 23q-1 1 -5 8.5t-5 10t-1.5 8t3 8t10.5 4.5l96 64l56 149q-6 10 -6 17t4.5 10.5t11 5.5t15.5 2.5t17.5 0.5t17.5 0.5t14 1.5q6 -1 35.5 -1.5t43 -6t1.5 -21.5q-8 -9 4.5 -20t23.5 -7q5 0 18 -1t21.5 1.5t14.5 11.5q22 0 31 -13q9 -12 -14 -16q-3 0 -6 -1
q-10 -5 -24 -20t-18 -18q4 -4 15 -8t17.5 -9t4.5 -13q1 -8 -8.5 -8.5t-18.5 1.5t-10 -6q-8 -25 10 -38t46 -13q10 5 18.5 18.5t13.5 26t17 20.5t31 3q16 -2 27 -15.5t20.5 -37t14.5 -30.5q11 -19 0 -18q-5 0 -21 7q-36 14 -46 8q-101 -7 -140 -49q-14 -27 -11 -63.5
t25 -58.5l88 -53v-182q-88 -73 -206 -78q-1 -10 0 -30t0 -35.5t-5 -28.5q146 1 267 97.5t155 239.5q36 136 -18.5 274.5t-174.5 212.5q-110 71 -242 71zM74 179q-35 1 -56.5 -29t-16.5 -65q0 -19 -0.5 -114.5t1.5 -114.5q5 -31 32.5 -48.5t59.5 -12.5q32 0 176.5 -0.5
t176.5 0.5q34 3 52.5 32.5t13.5 63.5v113.5t-2 113.5q-4 31 -31.5 48t-59.5 13h-346zM161 111h192v-95h91v-156h-374v156h91v95zM104 -16v-98q8 2 17.5 0.5t19 -0.5t11.5 6v92h-48zM187 -16v-97q8 1 17.5 -0.5t18.5 -0.5t11 6v92h-47zM269 -16v-97q8 1 17.5 -0.5t18.5 -0.5
t12 6v92h-48zM352 -16v-97q8 1 17.5 -0.5t18.5 -0.5t11 6v92h-47z" />
    <glyph glyph-name="aquodown" unicode="&#xe62d;" 
d="M184 383q259 -240 306 -283q30 -23 70 22q47 44 140 131t140 130h-206l-121 -114q-20 19 -61 57t-62 57h-206zM184 675q259 -240 306 -283q30 -22 70 23q47 43 140 130t140 130h-206l-121 -113q-20 18 -61.5 56t-61.5 57h-206z" />
    <glyph glyph-name="aquoleft" unicode="&#xe62e;" 
d="M511 712q-237 -256 -283 -306q-23 -30 23 -70q43 -47 130 -140t130 -140v206q-38 40 -114 121q19 20 57 61t57 62v206zM803 712q-240 -259 -283 -306q-22 -30 23 -70q43 -47 130 -140t130 -140v206q-18 20 -56 60.5t-57 60.5q19 20 57 61t56 62v206z" />
    <glyph glyph-name="aquoright" unicode="&#xe62f;" 
d="M513 34q256 277 302 327q24 31 -24 75q-183 196 -278 298v-220l1 -1l1 -1l1 -1l1 -1l1 -1l1 -1l1 -1v-1l1 -1l1 -1l1 -1l1 -1l1 -1l1 -1l1 -1l1 -1l1 -1l1 -1l1 -1l1 -1l1 -1l1 -1l1 -1l1 -1v-1l1 -1l1 -1l1 -1l1 -1l1 -1l1 -1l1 -1l1 -1l1 -1l1 -1l1 -1l1 -1l1 -1l1 -1
l1 -1v-1l1 -1l1 -1l1 -1l1 -1l1 -1l1 -1l1 -1l1 -1l1 -1l1 -1l1 -1l1 -1l1 -1l1 -1l1 -1l1 -1v-1l1 -1l2 -1l1 -1l1 -1l1 -1v-1l1 -1l1 -1l1 -1l1 -1l1 -1l1 -1l1 -1l1 -1l1 -1l1 -1l1 -1l1 -1l1 -1l1 -1l1 -1l1 -1v-1l1 -1l1 -1l1 -1l1 -1l1 -1l1 -1l1 -1l1 -1l1 -1l1 -1
l1 -1l1 -1l1 -1l1 -1l1 -1l1 -1v-1l1 -1l1 -1l1 -1l1 -1l1 -1l1 -1l1 -1l1 -1l1 -1l1 -1l1 -1l1 -1l1 -1l1 -1l1 -1l1 -1v-1l1 -1l1 -1l1 -1l1 -1l1 -1l1 -1l1 -1l1 -1l1 -1l1 -1l1 -1l1 -1l1 -2q-20 -22 -60.5 -65.5t-60.5 -65.5v-220v0zM201 34q256 277 303 327
q23 31 -25 75q-183 195 -278 298v-220l1 -1l1 -1l1 -1l1 -1l1 -1l1 -1l1 -1l1 -1l1 -1l1 -1v-1l1 -1l1 -1l1 -1l1 -1l1 -1l1 -1l1 -1l1 -1l1 -1l1 -1l1 -1l1 -1l1 -1l1 -1l1 -1l1 -1v-1l1 -1l1 -1l1 -1l1 -1l1 -1l1 -1l1 -1l1 -1l1 -1l1 -1l1 -1l1 -1l1 -1l1 -1l1 -1l1 -1
v-1l1 -1l1 -1l1 -1l1 -1l1 -1l1 -1l1 -1l1 -1l1 -1l1 -1l1 -1l1 -1l1 -1l1 -1l1 -1l1 -1v-1l2 -1l1 -1l1 -1l1 -1l1 -1l1 -1l1 -1v-1l1 -1l1 -1l1 -1l1 -1l1 -1l1 -1l1 -1l1 -1l1 -1l1 -1l1 -1l1 -1l1 -1l1 -1l1 -1l1 -1v-1l1 -1l1 -1l1 -1l1 -1l1 -1l1 -1l1 -1l1 -1l1 -1
l1 -1l1 -1l1 -1l1 -1l1 -1l1 -1v-1l1 -1l1 -1l1 -1l1 -1l1 -1l1 -1l1 -1l1 -1l1 -1l1 -1l1 -1l1 -1l1 -1l1 -1l1 -1l1 -1v-1l1 -1l1 -1l1 -1l1 -1l1 -1l1 -1l1 -1l2 -2q-21 -22 -61 -65.5t-61 -65.5v-220v0z" />
    <glyph glyph-name="aquoup" unicode="&#xe630;" 
d="M840 385q-259 240 -306 283q-30 23 -70 -23q-48 -44 -141 -130.5t-139 -129.5h206l121 114q20 -20 61.5 -57t61.5 -57h206zM840 93q-259 240 -306 283q-30 22 -70 -23q-47 -43 -140 -130t-140 -130h206q20 18 60.5 56t60.5 57q21 -19 62.5 -57t60.5 -56h206z" />
    <glyph glyph-name="arrowdown" unicode="&#xe631;" 
d="M75 348q65 -65 138 -143.5t161.5 -177t137.5 -150.5q49 52 137.5 150.5t161.5 177t138 143.5h-255v540q-37 -38 -91.5 -114t-90.5 -114q-36 39 -90.5 117.5t-91.5 117.5v-547h-255z" />
    <glyph glyph-name="arrowleft" unicode="&#xe632;" 
d="M441 821q-219 -219 -439 -437q220 -218 439 -437v220h574q-36 37 -106.5 109t-105.5 108q36 36 109 108.5t110 108.5h-581v220z" />
    <glyph glyph-name="arrowright" unicode="&#xe633;" 
d="M583 -53q219 219 439 437q-220 218 -439 437v-220h-574q36 -37 106.5 -109t105.5 -108q-36 -36 -109 -108.5t-110 -108.5h581v-220z" />
    <glyph glyph-name="arrowup" unicode="&#xe634;" 
d="M949 455q-219 219 -437 439q-218 -220 -437 -439h220v-574q37 36 109 106.5t108 105.5q36 -36 108.5 -109t108.5 -110v581h220z" />
    <glyph glyph-name="arrowstogether" unicode="&#xe635;" 
d="M512 683l96 -95l224 224l192 -192l-224 -224l96 -96h-384v383zM512 -83l-96 95l-224 -224l-192 192l224 224l-96 96h384v-383zM512 -83z" />
    <glyph glyph-name="arrowsplit" unicode="&#xe636;" 
d="M2 311l109 -109l255 255l219 -219l-255 -255l109 -109h-437v437zM1022 457l-109 109l-255 -255l-219 219l255 255l-109 109h437v-437zM1022 457z" />
    <glyph glyph-name="brush" unicode="&#xe637;" 
d="M854 872q-18 -1 -30.5 -12t-26.5 -31.5t-19 -26.5q-26 -34 -72.5 -97t-72.5 -98q-12 1 -47.5 10.5t-60 8.5t-40.5 -18q-8 -13 -40.5 -40t-34.5 -37l397 -225q12 38 17 63.5t3 61t-17 63.5q-2 12 -17.5 24.5t-25 23t-0.5 20.5q14 20 71 96.5t87 117.5q19 34 -7.5 66.5
t-63.5 29.5zM328 502q-35 -10 -76 -15t-77.5 -4.5t-78.5 0.5q-18 -120 34.5 -238.5t149.5 -204.5q36 -2 77.5 8.5t67.5 21.5t71 33q-14 -13 -40.5 -41t-48.5 -49t-43 -37q8 -5 42 -25.5t57 -29t47 -6.5q39 10 74.5 32.5t64 54.5t50 63.5t42.5 70.5q3 11 12.5 28.5t17 30.5
t11 29t-5.5 24z" />
    <glyph glyph-name="chartbar" unicode="&#xe638;" 
d="M351 881v-831h245v831h-245zM15 630v-580h250v580h-250zM679 384v-334h247v334h-247zM15 -30v-83h994v83h-994z" />
    <glyph glyph-name="chartline" unicode="&#xe639;" 
d="M863 780q0 -2 -1.5 -5.5t-1.5 -4.5l148 -148v-127l-197 197q-27 -15 -52 -15t-52 15l-183 -184q5 -15 5 -33q0 -43 -30.5 -73.5t-73.5 -30.5t-73 30.5t-30 73.5q0 15 8 36l-21 18q-19 -8 -42 -8q-25 0 -49 13l-204 -204v126l152 153l-1 6.5t-1 9.5q0 43 30 73t73 30
t73.5 -30t30.5 -73q0 -16 -3 -26l26 -26q17 5 31 5q22 0 37 -5l196 197q0 1 -1 4.5t-1 5.5q0 43 30 73.5t73 30.5t73.5 -30.5t30.5 -73.5zM863 415q0 -2 -1.5 -5.5t-1.5 -4.5l148 -148v-127l-197 197q-27 -15 -52 -15t-52 15l-183 -184q5 -15 5 -33q0 -43 -30.5 -73.5
t-73.5 -30.5t-73 30.5t-30 73.5q0 15 7 36l-18 18h-2q-19 -8 -42 -8q-25 0 -49 13l-202 -202h994v-83h-996v207l152 153q0 1 -1 7t-1 9q0 43 30 73t73 30t73.5 -30t30.5 -73q0 -16 -3 -26l26 -26q17 5 31 5q22 0 37 -5l196 197q0 1 -1 4.5t-1 5.5q0 43 30 73.5t73 30.5
t73.5 -30.5t30.5 -73.5zM710 415q0 -20 14.5 -34.5t35 -14.5t35 14.5t14.5 34.5t-14.5 34.5t-35 14.5t-35 -14.5t-14.5 -34.5zM218 259.5q0 -20.5 14.5 -34.5t35 -14t35 14t14.5 34.5t-14.5 35t-35 14.5t-35 -14.5t-14.5 -35zM376 109.5q0 -20.5 14.5 -35t35 -14.5
t34.5 14.5t14 35t-14 35t-34.5 14.5t-35 -14.5t-14.5 -35z" />
    <glyph glyph-name="chartpie" unicode="&#xe63a;" 
d="M510 894q-119 1 -229 -56t-183 -158t-89 -220q-20 -112 16 -225t116.5 -199.5t186.5 -125.5q80 -34 170 -35.5t172.5 25t154.5 80.5t118 129q80 126 79 271h-512v514zM594 894v-429h428q-1 117 -59 215.5t-156 156t-213 57.5z" />
    <glyph glyph-name="cardperson" unicode="&#xe63b;" horiz-adv-x="1027" 
d="M477 -11zM419 824v-228h192v228h-192zM515 795q20 0 34 -14t14 -34t-14 -34t-34 -14t-34 14t-14 34t14 34t34 14zM54 643q-21 0 -36 -18.5t-15 -45.5v-512q0 -26 15 -45t36 -19h922q21 0 36 19t15 45v512q0 27 -15 45.5t-36 18.5h-333v-84h-256v84h-333zM245 520
q37 0 63.5 -28t26.5 -68t-26.5 -67.5t-63.5 -27.5t-63 27.5t-26.5 67.5t26 68t63.5 28zM458 481h236v-45h-236v45zM461 350h486v-38h-486v38zM183 333q11 4 32 -8t30.5 -12t29.5 11.5t31 7.5q38 -15 60.5 -56t22.5 -88q0 -23 -29.5 -40t-71.5 -21t-84.5 -0.5t-72 20
t-30.5 41.5q-1 49 21.5 89.5t60.5 55.5zM460 223h360v-41h-360v41z" />
    <glyph glyph-name="cddriver1" unicode="&#xe63c;" 
d="M528 703q34 -63 34 -134q0 -117 -82 -199t-198 -82q-115 0 -197 81l-61 -117q-21 -42 -22 -60v-218q0 -30 22 -51.5t53 -21.5h870q31 0 53 21.5t22 51.5v218q-1 23 -21 60l-206 394q-12 24 -38.5 40.5t-50.5 16.5h-178zM75 192h874v-217h-874v217zM840 141
q-24 0 -40.5 -16.5t-16.5 -40.5t16.5 -41t40.5 -17t40.5 17t16.5 41t-16.5 40.5t-40.5 16.5zM282 829q-108 0 -184.5 -76t-76.5 -184t76.5 -184.5t184.5 -76.5t184 76.5t76 184.5t-76 184t-184 76zM282 679q46 0 78.5 -32.5t32.5 -78t-32.5 -77.5t-78.5 -32t-78.5 32
t-32.5 77.5t32.5 78t78.5 32.5zM282 661q-38 0 -65 -27t-27 -65t27 -65t65 -27t65 27t27 65t-27 65t-65 27zM282 608q16 0 27.5 -11.5t11.5 -27.5t-11.5 -27.5t-27.5 -11.5t-27.5 11.5t-11.5 27.5t11.5 27.5t27.5 11.5z" />
    <glyph glyph-name="cddriver2" unicode="&#xe63d;" 
d="M320 747q-25 0 -51 -16.5t-39 -40.5l-206 -394q-21 -42 -22 -60v-219q0 -30 22 -51t53 -21h134q-44 32 -59 74h-77v217h874v-217h-289q-15 -42 -60 -74h347q31 0 53 21t22 51v219q-1 23 -21 60l-206 394q-12 24 -38.5 40.5t-50.5 16.5h-386zM840 185q-24 0 -40.5 -17
t-16.5 -40.5t16.5 -40.5t40.5 -17t40.5 17t16.5 40.5t-16.5 40.5t-40.5 17zM134 123q-6 0 -10.5 -4t-4.5 -10v-6q0 -6 4.5 -10.5t10.5 -4.5h22q4 -60 78 -102.5t176.5 -42.5t176.5 42.5t78 102.5h22q6 0 10.5 4.5t4.5 10.5v6q0 6 -4.5 10t-10.5 4h-553zM302 88h19
q4 -20 29.5 -33.5t60 -13.5t60 13.5t29.5 33.5h19q-4 -24 -35 -41t-73.5 -17t-73.5 17t-35 41zM374 88h73q-8 -16 -36.5 -16t-36.5 16z" />
    <glyph glyph-name="cdrom" unicode="&#xe63e;" 
d="M513 895q-104 0 -199 -40.5t-163.5 -109t-109 -163.5t-40.5 -199.5t40.5 -199t109 -163t163.5 -109.5t199 -41t199 41t163.5 109.5t109.5 163t41 199t-41 199.5t-109.5 163.5t-163.5 109t-199 40.5zM513.5 599q90.5 0 154.5 -63.5t64 -153t-64 -153t-154.5 -63.5
t-155 63.5t-64.5 153t64.5 153t155 63.5zM513.5 563q-74.5 0 -127.5 -53t-53 -127.5t53 -127.5t127.5 -53t127 53t52.5 127.5t-52.5 127.5t-127 53zM513.5 459q31.5 0 53.5 -22.5t22 -54t-22 -54t-53.5 -22.5t-54 22.5t-22.5 54t22.5 54t54 22.5z" />
    <glyph glyph-name="chartarea" unicode="&#xe63f;" 
d="M778 914l-353 -385l-176 192l-265 -289v-385h1058v578zM-18 -50v-96h1060v96h-1060z" />
    <glyph glyph-name="circledminus" unicode="&#xe640;" 
d="M512 -212q-139 0 -257 68.5t-186.5 186.5t-68.5 257t68.5 257t186.5 186.5t257 68.5t257 -68.5t186.5 -186.5t68.5 -257t-68.5 -257t-186.5 -186.5t-257 -68.5zM256 364v-128h512v128h-512zM256 364z" />
    <glyph glyph-name="circledplus" unicode="&#xe641;" 
d="M256 364v-128h192v-192h128v192h192v128h-192v192h-128v-192h-192zM512 -212q-139 0 -257 68.5t-186.5 186.5t-68.5 257t68.5 257t186.5 186.5t257 68.5t257 -68.5t186.5 -186.5t68.5 -257t-68.5 -257t-186.5 -186.5t-257 -68.5zM512 -212z" />
    <glyph glyph-name="circledsync" unicode="&#xe642;" 
d="M512 44q-77 0 -140 41.5t-93 109.5l105 105h-64h-64h-128v-256l56 56q52 -84 139 -134t189 -50q142 0 249 91.5t130 228.5h-131q-22 -84 -90.5 -138t-157.5 -54zM512 -212q-139 0 -257 68.5t-186.5 186.5t-68.5 257t68.5 257t186.5 186.5t257 68.5t257 -68.5
t186.5 -186.5t68.5 -257t-68.5 -257t-186.5 -186.5t-257 -68.5zM768 300h128v256l-56 -56q-52 84 -139 134t-189 50q-142 0 -249 -91.5t-130 -228.5h131q22 84 90.5 138t157.5 54q77 0 140 -41.5t93 -109.5l-105 -105h64h64zM768 300z" />
    <glyph glyph-name="lquoup" unicode="&#xe643;" 
d="M511 573l-329 -378h163l166 192l168 -192h163z" />
    <glyph glyph-name="lquodown" unicode="&#xe644;" 
d="M513 195l329 378h-163l-166 -192l-168 192h-163z" />
    <glyph glyph-name="lquoleft" unicode="&#xe645;" 
d="M323 383l378 -329v163l-192 166l192 168v163z" />
    <glyph glyph-name="lquoright" unicode="&#xe646;" 
d="M701 385l-378 329v-163l192 -166l-192 -168v-163z" />
    <glyph glyph-name="viewlist" unicode="&#xe647;" 
d="M131 704h128v-127h-128v127zM325 704h574v-127h-574v127zM131 450h128v-128h-128v128zM325 450h574v-128h-574v128zM131 191h128v-127h-128v127zM325 191h574v-127h-574v127z" />
    <glyph glyph-name="viewcolumns" unicode="&#xe648;" 
d="M2 821h291v-146h-291v146zM2 602h291v-655h-291v655zM368 821h290v-146h-290v146zM368 602h290v-655h-290v655zM731 821h291v-146h-291v146zM731 602h291v-655h-291v655z" />
    <glyph glyph-name="viewcoverflow" unicode="&#xe649;" 
d="M252 554h517v-508h-517v508zM832 555h64v-510h-64v510zM960 618h64v-636h-64v636zM0 620h64v-640h-64v640zM832 555h64v-510h-64v510zM130 555h64v-510h-64v510z" />
    <glyph glyph-name="viewgrid" unicode="&#xe64a;" 
d="M2 821h292v-239h-292v239zM367 821h292v-239h-292v239zM730 821h292v-239h-292v239zM2 500h292v-239h-292v239zM367 500h292v-239h-292v239zM730 500h292v-239h-292v239zM2 186h292v-239h-292v239zM367 186h292v-239h-292v239zM730 186h292v-239h-292v239z" />
    <glyph glyph-name="sheildtick" unicode="&#xe64b;" 
d="M512 901l-95 -4q-18 -1 -33 -14.5t-24 -30t-23.5 -33.5t-30.5 -23q-47 -39 -104.5 -60t-116.5 -17q-10 -72 -10.5 -146.5t15 -150t40 -145.5t65 -134t90.5 -115.5t115.5 -89.5t139.5 -56q68 26 126.5 68t103 95t79.5 116t56.5 131t33 139.5t11 143t-12.5 140.5
q-92 -5 -175.5 46t-135.5 134l-95 6h-19zM721 565q11 0 19 -7l19 -19q8 -8 8 -19t-8 -19l-275 -275q-8 -8 -19 -8t-19 8l-19 19l-162 162q-8 8 -8 19t8 19l19 19q8 8 19 8t19 -8l143 -143l237 237q8 7 19 7z" />
    <glyph glyph-name="sheildcross" unicode="&#xe64c;" 
d="M626 896q52 -82 135.5 -133t175.5 -47q31 -189 -17.5 -375.5t-173.5 -320.5q-91 -97 -206 -137q-130 27 -232 123t-159 226q-103 230 -64 488q91 -5 174 44.5t136 131.5q116 13 231 0zM370 571q-3 -3 -19 -18.5t-21 -25.5q5 -11 22 -27.5t20 -19.5l87 -87
q-12 -12 -58.5 -58t-70.5 -72q2 -11 18.5 -26.5t17.5 -17.5q5 -6 10 -7t9.5 2t8.5 7t8.5 9.5t7.5 7.5l102 102q12 -12 58 -58.5t72 -70.5q11 2 27 18.5t17 18.5q6 4 7 9t-2 9.5t-7 8.5t-9.5 8.5t-7.5 7.5q-15 14 -32.5 32.5t-37 37.5t-32.5 32q12 12 58.5 58t70.5 72
q-2 11 -18.5 27t-17.5 18q-5 5 -10 6t-9.5 -2t-8.5 -7t-8.5 -9.5t-7.5 -7.5l-102 -102q-12 12 -58 58.5t-72 70.5q-6 2 -12 -4z" />
    <glyph glyph-name="sheildflower" unicode="&#xe64d;" 
d="M949 706q-92 -5 -175.5 46.5t-135.5 133.5l-95 6l-20 1l-94 -5q-18 -1 -33 -14.5t-24 -29.5t-23.5 -33.5t-30.5 -23.5q-48 -39 -105.5 -59.5t-115.5 -17.5q-10 -72 -11 -146t14.5 -149.5t40 -146t65.5 -134.5t90.5 -115.5t115 -89.5t139.5 -56q68 26 126.5 68t103 95
t79.5 116t57 131t33 139.5t10.5 143.5t-11.5 140zM544 7q-64 16 -118.5 51t-93.5 83t-68.5 107t-43.5 121.5t-18.5 128t7.5 126.5q87 -5 163 57q12 4 22.5 16.5t17 24.5t17.5 22t25 11l69 3h15l69 -4q39 -61 100.5 -99t128.5 -34q12 -58 9.5 -120.5t-14 -122.5t-37 -117.5
t-60 -106t-83.5 -86.5t-107 -61v0zM523 727l-64 -3q-12 0 -22 -9t-16 -20t-16 -23t-21 -16q-69 -57 -149 -52q-11 -56 -7 -116t16.5 -117.5t40 -111.5t63 -98t86 -76.5t108.5 -46.5q64 25 115.5 70.5t84 102t53.5 123.5t23 134t-7 133q-62 -3 -118.5 31.5t-91.5 90.5l-64 4
h-14z" />
    <glyph glyph-name="sheildnone" unicode="&#xe64e;" 
d="M512 894l-95 -5q-18 -1 -33 -14.5t-24 -29.5t-23.5 -33t-30.5 -24q-47 -39 -104.5 -59.5t-116.5 -17.5q-10 -72 -10.5 -146t15 -149.5t40 -146t65 -134.5t90.5 -115.5t115.5 -89.5t139.5 -56q68 26 126.5 68t103 95t79.5 116t56.5 131t33 140t11 143.5t-12.5 139.5
q-92 -5 -175.5 46.5t-135.5 133.5l-95 6z" />
    <glyph glyph-name="diskhdd" unicode="&#xe64f;" horiz-adv-x="1170" 
d="M16 9q-2 12 -1.5 77t-0.5 77q1 13 0 39t0.5 46.5t7.5 38.5q44 82 127.5 233.5t101.5 186.5q17 37 47 62.5t69 26.5h398q38 3 72 -11t53 -43q37 -66 104.5 -189t84.5 -154q7 -14 22.5 -41t26.5 -49t17 -44q1 -19 0.5 -111.5t-0.5 -112.5q6 -34 -16.5 -62.5t-57.5 -30.5
h-475.5h-474.5q-36 -4 -67.5 12t-37.5 49v0zM1065 26v230h-970v-230h970zM880 143.5q0 26.5 18.5 45t45 18.5t45 -18.5t18.5 -45t-18.5 -45t-45 -18.5t-45 18.5t-18.5 45z" />
    <glyph glyph-name="diskssd" unicode="&#xe650;" horiz-adv-x="1171" 
d="M21 9q-2 12 -2 77.5v76.5q1 14 0 40t0.5 46.5t7.5 38.5q44 83 128 235.5t103 187.5q16 37 46.5 62t67.5 26h398q38 3 73 -10.5t55 -43.5q37 -67 104.5 -190.5t85.5 -154.5q7 -15 22.5 -41.5t26.5 -48.5t16 -44q1 -19 1 -112v-112q5 -35 -17.5 -63.5t-57.5 -30.5h-476.5
h-477.5q-35 -4 -66 12t-38 49v0zM1073 26v231h-973v-231h973zM889 139.5q0 26.5 19 45t45.5 18.5t45 -18.5t18.5 -45t-18.5 -45.5t-45 -19t-45.5 19t-19 45.5zM427 337l317 193l-157 37l160 153l-243 1l-161 -194l161 -37z" />
    <glyph glyph-name="disabled" unicode="&#xe651;" 
d="M511 896q-111 2 -214.5 -46.5t-178 -136t-101.5 -194.5q-41 -152 14 -307t183 -245q125 -91 287.5 -95t291.5 84q126 82 188.5 227t33.5 292q-26 152 -138.5 267.5t-263.5 143.5q-50 10 -102 10zM511 805q97 3 186.5 -44t149 -128.5t73.5 -177.5q15 -84 -6.5 -170
t-73.5 -155q-187 187 -582 585q116 92 253 90zM185 643l585 -588q-72 -61 -168.5 -82t-192 2.5t-165.5 86.5q-82 68 -120 173t-22.5 215.5t83.5 192.5z" />
    <glyph glyph-name="description" unicode="&#xe652;" 
d="M157 894q-64 0 -109.5 -45.5t-45.5 -109.5v-710q0 -64 45.5 -109.5t109.5 -45.5h710q64 0 109.5 45.5t45.5 109.5v710q0 64 -45.5 109.5t-109.5 45.5h-710zM115 738h461v-146h-461v146zM115 467h790v-146h-790v146zM115 197h790v-146h-790v146z" />
    <glyph glyph-name="edit" unicode="&#xe653;" 
d="M64 -64v768v0v128v0v0h512v-128h-384v-640h640v320h128v-320v0v-128h-896v0zM375 205l70 171l329 328l90 -90l-328 -328zM909 659l-90 91l38 38q13 12 30 12t30 -12l31 -31q12 -12 12 -29.5t-12 -29.5z" />
    <glyph glyph-name="delete" unicode="&#xe654;" 
d="M363 811q-35 2 -57.5 -26.5t-16.5 -62.5v-54h-225v-80h896v80h-227q-1 9 0.5 39t-3 49t-19.5 34q-14 15 -33.5 19t-50 3t-39.5 -1h-225zM363 738h296v-70h-296v70zM147 519q1 -54 0.5 -299.5t0.5 -299.5q5 -59 54.5 -98.5t109.5 -32.5h218.5t217.5 1q60 4 100 53t33 108
v568h-734zM289 378h71v-443h-71v443zM439 378h150v-443h-150v443zM659 373h72v-440h-72v440z" />
    <glyph glyph-name="eth" unicode="&#xe655;" 
d="M97 702q-34 0 -57.5 -24.5t-23.5 -58.5v-663q0 -34 23.5 -58t57.5 -24h831q34 0 57.5 24t23.5 58v663q0 34 -23.5 58.5t-57.5 24.5h-831zM347 535h331v-166l166 1v-331h-663v331l166 -1v166zM263 288v-166h83v166h-83zM402 288v-166h83v166h-83zM540 288v-166h83v166h-83
zM678 288v-166h83v166h-83z" />
    <glyph glyph-name="filebox" unicode="&#xe656;" 
d="M0 172h1024l-64 -384h-896zM320 108v-64h384v64h-384zM128 812h768l128 -640h-64l-128 576h-639l-129 -576h-64zM192 300h640v-64h-640v64zM192 428h640v-64h-640v64zM256 556h512v-64h-512v64zM256 684h512v-64h-512v64zM256 684z" />
    <glyph glyph-name="filedocument" unicode="&#xe657;" 
d="M128 748h512v-320h256v-640h-256h-512v960v0zM705 747l195 -257h-195v257v0zM705 747z" />
    <glyph glyph-name="fullscreenexit" unicode="&#xe658;" 
d="M787 -65l147 -147l90 90l-147 147l147 147h-384v-384zM0 428h384v384l-147 -147l-145 146l-90 -91l145 -145zM0 -122l90 -90l147 147l147 -147v384h-384l147 -147zM640 428h384l-147 147l146 145l-91 91l-145 -146l-147 147v-384z" />
    <glyph glyph-name="fullscreen" unicode="&#xe659;" 
d="M877 25l-147 147l-90 -90l147 -147l-147 -147h384v384zM384 812h-384v-384l147 147l145 -145l91 90l-146 145zM384 82l-90 90l-147 -147l-147 147v-384h384l-147 147zM1024 812h-384l147 -147l-146 -145l91 -90l145 145l147 -147v384z" />
    <glyph glyph-name="hardconfig" unicode="&#xe65a;" 
d="M38 654q-14 0 -24 -10.5t-10 -25.5v-582q0 -15 10 -26.5t24 -11.5h950q14 0 24 11.5t10 26.5v582q0 15 -10 25.5t-24 10.5h-950zM76 584h874v-438h-874v438zM504 542q-13 -2 -14 -14q-1 -3 -1.5 -9.5t-1.5 -10t-3.5 -8t-7.5 -6.5q-2 -1 -13.5 -6.5t-18.5 -5.5
q-7 1 -18.5 9.5t-17.5 10.5q-5 0 -9 -2.5t-8 -8t-7 -7.5q-11 -10 2 -24q1 -1 4.5 -5.5t5 -6.5t3 -6t1.5 -7.5t-2 -6.5q-1 -3 -3.5 -9t-4.5 -9.5t-5.5 -7.5t-8.5 -6q-3 -1 -14.5 -2t-17.5 -4q-7 -8 -7 -22.5t9 -21.5q3 -1 18.5 -3t21.5 -9q13 -28 14 -34q0 -8 -10 -20
t-12 -18q3 -11 13 -19.5t21 -6.5q4 2 10.5 7.5t12.5 8.5t13 2q26 -10 32 -14q6 -6 7.5 -20.5t4.5 -19.5q8 -7 22.5 -7t21.5 9q1 3 3 18.5t9 21.5q21 10 32 12q8 0 20 -9.5t18 -10.5q5 0 9.5 2.5t9.5 8t7 7.5q11 10 -4 26q-16 20 -10 30q2 3 4.5 11.5t6 13.5t9.5 7
q1 0 13.5 2.5t18.5 5.5q7 8 7 21.5t-9 20.5q-5 2 -28 6q-7 1 -10.5 5.5t-7 13.5t-4.5 11q-9 14 6 30q15 20 8 28q-2 2 -6.5 7t-8.5 7.5t-9 3.5q-5 0 -9 -3t-9 -7t-8 -6q-10 -3 -12.5 -3.5t-13 4t-12.5 5.5q-16 4 -16 22q0 1 -1 6l-1.5 7.5t-2 6t-4 5.5t-5.5 3q-14 1 -22 0z
M518 412q11 -1 20 -8q18 -11 19.5 -34t-15.5 -36q-12 -10 -28 -10q-21 -1 -35 18.5t-7 39.5q4 15 17.5 23.5t28.5 6.5zM514 106q15 0 24.5 -10.5t9.5 -25.5t-9.5 -25.5t-24.5 -10.5t-25.5 10.5t-10.5 25.5t10.5 25.5t25.5 10.5zM242 -74q-12 0 -21 -9t-9 -21v-16
q0 -12 9 -20t21 -8h532q12 0 21 8t9 20v16q0 12 -9 21t-21 9h-532z" />
    <glyph glyph-name="gear" unicode="&#xe65b;" horiz-adv-x="1026" 
d="M998 366q-15 5 -46 9t-36 5q-19 4 -30 17t-21 40.5t-13 33.5q-23 37 19 83q1 2 9 12.5t10 13.5t7.5 12.5t5.5 15.5t-2 14t-8 15q-7 6 -19.5 20.5t-24.5 23.5t-26 11q-14 -1 -27 -9t-28 -20.5t-23 -17.5q-12 -10 -27.5 -10.5t-27 3.5t-29 12t-26.5 11q-22 5 -34.5 24
t-13.5 44q-1 5 -3 22t-4 25.5t-9.5 18.5t-19.5 14q-3 0 -8 1q-21 1 -42.5 2t-38.5 -9.5t-20 -33.5q-1 -7 -4 -34.5t-9.5 -43t-23.5 -24.5q-11 -4 -30 -12.5t-35.5 -14t-31.5 -6.5q-21 3 -52 28t-48 30q-16 1 -28 -7t-25.5 -23.5t-20.5 -21.5q-12 -10 -12.5 -24.5t6 -26
t16.5 -22.5q1 -2 8.5 -11.5t9.5 -12.5l8 -12t7 -14t2.5 -13t0 -15t-5.5 -14q-5 -9 -13.5 -33.5t-18.5 -39t-28 -21.5q-9 -2 -43 -6t-51 -13q-21 -23 -20 -65t26 -61q14 -6 39 -8t45 -7.5t33 -21.5q31 -70 37 -95q-1 -25 -29 -59.5t-32 -53.5q8 -32 38 -57t63 -20
q12 6 30.5 22t36 25t36.5 6q6 -2 23 -8.5t25.5 -10t21.5 -9.5t23 -13q17 -17 21.5 -59.5t13.5 -58.5q23 -21 64.5 -20t61.5 26q5 14 7 39t8 45.5t21 32.5q71 32 95 37q25 0 58 -27t50 -31q16 -1 28 7t25.5 23.5t20.5 21.5q32 28 -12 75q-1 2 -4 5q-9 13 -14 20t-11 19
t-5.5 23.5t6.5 22.5q5 9 13.5 33.5t18.5 39t28 21.5q9 2 43 6t51 13q21 23 20 64.5t-26 61.5zM593 202q-35 -29 -81 -29q-40 -1 -73.5 24t-47.5 64.5t-1 77.5q8 29 30 50.5t49.5 31.5t58.5 6.5t55 -20.5q34 -21 48 -60.5t4 -79.5t-42 -65z" />
    <glyph glyph-name="help" unicode="&#xe65c;" 
d="M511 894q-104 0 -198 -40.5t-162 -109t-108.5 -162.5t-40.5 -198t40.5 -198t108.5 -162.5t162 -109t198 -40.5t198.5 40.5t163 108.5t109 162.5t40.5 198.5t-40.5 198.5t-109 162.5t-163 108.5t-198.5 40.5zM499 725q77 0 126 -41q48 -39 48 -109q0 -33 -14 -66
q-15 -36 -73 -91q-48 -45 -61 -66q-14 -21 -14 -50q0 -35 14 -66h-80q-12 34 -12 68q0 27 14 57q12 28 66 80q55 52 66 75q12 24 12 50q0 40 -30 64q-31 25 -73 25q-78 0 -137 -62v87q73 45 148 45zM490 152q23 0 39 -16t16 -39q0 -20 -16 -36q-18 -18 -36 -18q-26 0 -44 18
q-16 16 -16 36q0 23 16 39t41 16z" />
    <glyph glyph-name="redo" unicode="&#xe65d;" 
d="M871 22q-74 -74 -169 -112t-191.5 -38t-192 38t-168.5 112q-91 90 -128 212h155q28 -61 76 -109q70 -70 163.5 -95t187.5 0t164 95t94.5 163.5t0 187.5t-94.5 164q-53 52 -121 79.5t-137 27.5t-137 -27.5t-120 -79.5q-14 -14 -27 -31l139 -138q-16 -16 -38 -16h-270
q-22 0 -37.5 15.5t-15.5 37.5v270q0 22 16 37l102 -102q13 15 28 30q73 73 168.5 111t192 38t191.5 -38t168.5 -111.5t111.5 -168.5t38 -191.5t-38 -192t-111 -168.5v0z" />
    <glyph glyph-name="history" unicode="&#xe65e;" 
d="M154 24q-92 91 -128 214h115q30 -78 89 -137q58 -58 132.5 -88t150.5 -30t150.5 30t132 87.5t87.5 132.5t30 151t-29.5 151t-87.5 132.5t-132.5 87.5t-150.5 30t-150.5 -30t-132.5 -88q-23 -23 -41 -49l104 -105q-12 -12 -30 -12h-218q-18 0 -30.5 12.5t-12.5 30.5v218
q0 18 13 31l96 -97q19 24 43 48q97 98 228 133t262 0t228.5 -132.5t132.5 -229t0 -263t-132.5 -229t-228.5 -132.5t-262 0t-228 133v0zM439 311v0v0v365h73v-292h218v-73h-291v0z" />
    <glyph glyph-name="sharewechat" unicode="&#xe65f;" 
d="M368 771q-99 0 -183 -40t-132.5 -109t-48.5 -150q0 -72 40 -136.5t111 -106.5l-40 -105l138 64q7 -1 25.5 -4t27.5 -4.5t25 -3.5t26 -2.5t23 -0.5t24 1q-14 51 -14 77q0 107 92.5 183t222.5 76h23q-17 112 -120 186.5t-240 74.5zM249.5 615q19.5 0 33 -14t13.5 -33.5
t-13.5 -33t-33 -13.5t-33.5 13.5t-14 33t14 33.5t33.5 14zM492.5 615q19.5 0 33.5 -14t14 -33.5t-14 -33t-33.5 -13.5t-33 13.5t-13.5 33t13.5 33.5t33 14zM714 500q-127 0 -217 -74t-90 -178.5t90 -178t217 -73.5q14 0 38.5 3t41 6.5l16.5 3.5l116 -54l-34 88q60 36 94 90
t34 115q0 104 -89.5 178t-216.5 74zM608.5 368q16.5 0 28 -11.5t11.5 -28t-11.5 -28t-28 -11.5t-28 11.5t-11.5 28t11.5 28t28 11.5zM813.5 368q16.5 0 28 -11.5t11.5 -28t-11.5 -28t-28 -11.5t-28 11.5t-11.5 28t11.5 28t28 11.5zM472 -62z" />
    <glyph glyph-name="sharesina" unicode="&#xe660;" horiz-adv-x="1185" 
d="M871 296q-7 2 -10.5 3.5t-8 5t-3 8t2.5 13.5q30 76 1 118q-30 40 -99.5 40t-159.5 -39v0q-30 -12 -29 6q0 3 1 8q30 95 -12 138q-48 49 -159.5 4.5t-221.5 -156.5q-83 -84 -128 -169.5t-45 -161.5q0 -71 42 -133t111 -103.5t156 -65.5t178 -24q113 0 214 33t167.5 84.5
t105 112t38.5 117.5q0 61 -41 102t-100 59zM487.5 -124.5q-94.5 -9.5 -177.5 13.5t-135 71t-58 110.5t35.5 120t118.5 96t171.5 48t177.5 -13t134.5 -71t58 -111t-35 -120t-118.5 -96t-171.5 -48zM1185 455q0 97 -48 179t-130 130t-179 48q-18 0 -30 -12t-12 -29.5t12 -29.5
t30 -12q113 0 193 -80.5t80 -193.5q0 -17 12.5 -29.5t29.5 -12.5t29.5 12.5t12.5 29.5v0zM1019 461q-14 70 -64.5 120.5t-120.5 64.5q-17 4 -31.5 -5.5t-18 -26.5t6 -31.5t26.5 -17.5q45 -10 78 -42.5t43 -78.5q3 -17 17.5 -26.5t31.5 -6t26.5 18t5.5 31.5zM389 210.5
q-58 -11.5 -92 -54t-24.5 -91t57.5 -74.5t106 -14t92 54.5t24.5 90.5t-57.5 74t-106 14.5z" />
    <glyph glyph-name="radiochecked" unicode="&#xe661;" 
d="M514 832q-61 2 -120 -14.5t-108.5 -48.5t-92 -75t-71 -96t-44.5 -109.5t-14 -118t22 -119.5q18 -68 60.5 -126.5t97.5 -98t123 -63.5t136 -27t137.5 16.5t126.5 61.5q89 57 139.5 154t54 200t-39.5 203.5t-129 163.5q-58 47 -130.5 72t-147.5 25v0zM514 720
q53 2 104.5 -15t91.5 -48.5t73 -74t49 -92t19 -102t-16 -103.5q-21 -77 -79.5 -134.5t-131.5 -83t-154.5 -17t-145.5 56.5q-67 42 -104.5 115t-40.5 150t29.5 152.5t96.5 122.5q92 73 209 73v0zM736 384q2 -42 -14.5 -82.5t-45.5 -69.5t-67 -49.5t-79.5 -23t-83.5 10.5
q-51 14 -89.5 53t-55.5 87.5t-11 103t37 96.5q38 60 107.5 84.5t140.5 5t113 -76.5q48 -61 48 -139v0z" />
    <glyph glyph-name="radiouncheck" unicode="&#xe662;" 
d="M64 384q0 -122 60 -225t163 -163t225 -60t225 60t163 163t60 225t-60 225t-163 163t-225 60t-225 -60t-163 -163t-60 -225z" />
    <glyph glyph-name="more" unicode="&#xe663;" 
d="M476 402q-40 0 -68 -28t-28 -68t28 -68t68 -28t68 28t28 68t-28 68t-68 28zM804 396q-40 0 -68 -28t-28 -68t28 -68t68 -28t68 28t28 68t-28 68t-68 28zM160 394q-40 0 -68 -27.5t-28 -66.5t28 -66.5t68 -27.5t68 27.5t28 66.5t-28 66.5t-68 27.5z" />
    <glyph glyph-name="running" unicode="&#xe664;" 
d="M609 651v0q0 40 -28 68t-67.5 28t-67.5 -28t-28 -67.5t28 -67.5t67.5 -28t67.5 28t28 67zM609 -54.5q0 39.5 -28 67.5t-67.5 28t-67.5 -28t-28 -67.5t28 -67.5t67.5 -28t67.5 28t28 67.5zM867 203v0q39 0 67 28t28 67.5t-28 67.5t-67.5 28t-67.5 -28t-28 -67.5t28 -67.5
t68 -28zM161 203v0q39 0 67 28t28 67.5t-28 67.5t-67.5 28t-67.5 -28t-28 -67.5t28 -67.5t68 -28zM830.5 480.5q11.5 11.5 20 31.5t8.5 36q0 40 -28 68t-68 28q-16 0 -36 -8.5t-31.5 -20t-19.5 -31.5t-8 -36q0 -39 28 -67t67 -28q17 0 36.5 8t31 19.5zM331.5 -18.5
q11.5 11.5 20 31.5t8.5 36q0 39 -28 67t-68 28q-16 0 -36 -8t-31.5 -19.5t-19.5 -31.5t-8 -36q0 -40 27.5 -68t67.5 -28q16 0 36 8.5t31.5 20zM695.5 -18.5q11.5 -11.5 31.5 -20t36 -8.5q40 0 68 28t28 68q0 16 -8.5 36t-20 31.5t-31 19.5t-36.5 8q-39 0 -67 -28t-28 -67
q0 -16 8 -36t19.5 -31.5zM196.5 480.5q11.5 -11.5 31.5 -19.5t36 -8q40 0 68 28t28 67q0 16 -8.5 36t-20 31.5t-31.5 20t-36 8.5q-40 0 -67.5 -28t-27.5 -68q0 -16 8 -36t19.5 -31.5z" />
    <glyph glyph-name="ctrlplay" unicode="&#xe665;" 
d="M247 -73l581 324q36 20 36 48.5t-36 49.5l-581 323q-36 21 -61.5 6.5t-25.5 -54.5v-648q0 -40 25.5 -54.5t61.5 5.5z" />
    <glyph glyph-name="ctrlstop" unicode="&#xe666;" 
d="M832 769h-640q-26 0 -45 -18.5t-19 -45.5v-640q0 -26 19 -45t45 -19h640q26 0 45 19t19 45v640q0 27 -19 45.5t-45 18.5z" />
    <glyph glyph-name="ctrlpause" unicode="&#xe667;" 
d="M255 684h130q26 0 44.5 -18.5t18.5 -45.5v-640q0 -27 -18.5 -45.5t-44.5 -18.5h-130q-26 0 -44.5 18.5t-18.5 45.5v640q0 27 18.5 45.5t44.5 18.5zM639 684h130q26 0 44.5 -18.5t18.5 -45.5v-640q0 -27 -18.5 -45.5t-44.5 -18.5h-130q-26 0 -44.5 18.5t-18.5 45.5v640
q0 27 18.5 45.5t44.5 18.5z" />
    <glyph glyph-name="cpu" unicode="&#xe668;" 
d="M226 793q-1 -3 -1 -5v-82q0 -17 12.5 -29.5t30 -12.5t29.5 12.5t12 29.5v82v5h-83zM391 793v-5v-82q0 -17 12 -29.5t29.5 -12.5t30 12.5t12.5 29.5v82v5h-84zM557 793q-1 -3 -1 -5v-82q0 -17 12.5 -29.5t30 -12.5t29.5 12.5t12 29.5v82v5h-83zM722 793v-5v-82
q0 -17 12 -29.5t29.5 -12.5t29.5 12.5t12 29.5v82q0 2 -1 5h-82zM264 624q-34 0 -58.5 -24t-24.5 -58v-499q0 -34 24.5 -58.5t58.5 -24.5h500q34 0 58 24.5t24 58.5v499q0 34 -24 58t-58 24h-500zM17 582v-82v0h82q17 0 29.5 12t12.5 29t-12.5 29t-29.5 12h-82v0zM931 582
q-17 0 -29.5 -12t-12.5 -29t12.5 -29t29.5 -12h78v82h-78zM262 542h498v-494h-498v494zM295 509v-429h433v429h-433zM931 418q-17 0 -29.5 -12t-12.5 -29.5t12.5 -30t29.5 -12.5h78v84h-78zM17 417v-84h81q18 0 30 12.5t12 30t-12 29.5t-30 12h-81zM931 253
q-17 0 -29.5 -12.5t-12.5 -30t12.5 -29.5t29.5 -12h78v84h-78zM17 251v-84h81q18 0 30 12t12 29.5t-12 30t-30 12.5h-81zM17 87v-84v0h82q17 0 29.5 12.5t12.5 30t-12.5 29.5t-29.5 12h-82v0zM931 87q-17 0 -29.5 -12t-12.5 -29.5t12.5 -30t29.5 -12.5h78v84h-78zM264.5 -80
q-17.5 0 -29.5 -12t-12 -30v-79h83v79q0 18 -12 30t-29.5 12zM430.5 -80q-17.5 0 -30 -12t-12.5 -30v-79h84v79q0 18 -12 30t-29.5 12zM596.5 -80q-17.5 0 -29.5 -12t-12 -30v-79h83v79q0 18 -12 30t-29.5 12zM761.5 -80q-17.5 0 -29.5 -12t-12 -30v-79h83v79q0 18 -12 30
t-29.5 12z" />
    <glyph glyph-name="ram" unicode="&#xe669;" 
d="M74 705q-30 0 -51 -21t-21 -51v-364q0 -29 21 -50t51 -21h1v-70q0 -30 21.5 -51.5t51.5 -21.5h145q31 0 52 21.5t21 51.5v70h73v-73q0 -30 21 -51t51 -21h365q30 0 51 21t21 51v73h1q30 0 51 21t21 50v364q0 30 -21 51t-51 21h-875zM113 633h107q16 0 27.5 -11.5
t11.5 -28.5v-282q0 -17 -11.5 -29t-27.5 -12h-107q-17 0 -28 12t-11 29v282q0 17 11 28.5t28 11.5zM340 633h108q16 0 27.5 -11.5t11.5 -28.5v-282q0 -17 -11.5 -29t-27.5 -12h-108q-16 0 -27.5 12t-11.5 29v282q0 17 11.5 28.5t27.5 11.5zM568 633h107q16 0 27.5 -11.5
t11.5 -28.5v-282q0 -17 -11.5 -29t-27.5 -12h-107q-16 0 -27.5 12t-11.5 29v282q0 17 11.5 28.5t27.5 11.5zM795 633h108q16 0 27.5 -11.5t11.5 -28.5v-282q0 -17 -11.5 -29t-27.5 -12h-108q-16 0 -27 12t-11 29v282q0 17 11 28.5t27 11.5z" />
    <glyph glyph-name="pcivga" unicode="&#xe66a;" 
d="M4 618q-4 0 -4 -4v-55q0 -5 4 -5h60v-253h-57q-7 0 -7 -7v-180q0 -7 7 -7h57v-181q0 -8 8 -8h49q9 0 9 8v118h128v-118q0 -8 9 -8h373q9 0 9 8v118h33v-118q0 -8 9 -8h196q9 0 9 8v118h54q4 0 7 3t3 7v365q0 4 -3 7t-7 3q-106 -7 -212 6.5t-179 31t-146 29t-143.5 -3
t-139.5 -63.5v181q0 8 -9 8h-23h-26h-68zM354 377q57 0 97.5 -40t40.5 -97t-40.5 -97.5t-98 -40.5t-98 40.5t-40.5 97.5t40.5 97t98.5 40v0zM356 355q-22 -3 -37.5 -20t-15.5 -40.5t15.5 -40.5t37.5 -20v121zM581 363h122q2 0 2 -3v-246q0 -3 -2 -3h-122q-3 0 -3 3v246
q0 3 3 3zM771 363h121q3 0 3 -3v-246q0 -3 -3 -3h-121q-3 0 -3 3v246q0 3 3 3zM417 288q-23 0 -40.5 -15t-19.5 -38h-1v-120q23 2 38.5 19.5t15.5 40.5t-15 40t-37 20h120q-3 22 -20.5 37.5t-40.5 15.5v0zM235 234q2 -23 19.5 -38t41 -15t40.5 15t20 38h-121z" />
    <glyph glyph-name="pci" unicode="&#xe66b;" 
d="M94 796q-2 0 -4 -1h-69q-5 0 -9 -5t-4 -12v-44q0 -7 4 -12t9 -5h58v-764q0 -7 4 -11.5t11 -4.5h59q7 0 11 4.5t4 11.5v221h381v-145q0 -5 3 -9t8 -4h315q5 0 8.5 4t3.5 9v145h122q2 0 2 2v383q0 2 -2 2h-841v219q0 7 -4 11.5t-11 4.5h-59zM245 484h285q9 0 9 -10v-131
q0 -10 -9 -10h-285q-10 0 -10 10v131q0 10 10 10zM651 481h184q9 0 15 -6t6 -14v-190q0 -8 -6 -14t-15 -6h-184q-8 0 -14 6t-6 14v190q0 8 6 14t14 6zM676 453q-10 0 -17 -6.5t-7 -16.5v-138q0 -9 7 -16t17 -7h136q10 0 17 7t7 16v138q0 10 -7 16.5t-17 6.5h-136z" />
    <glyph glyph-name="mail" unicode="&#xe66c;" 
d="M623 269l317 -272q-19 -17 -44 -17h-768q-25 0 -44 17l317 272l111 -97zM512 236l-428 367q19 17 44 17h768q25 0 44 -17zM960 32l-309 263l309 269v-532v0zM64 32v532l309 -269l-309 -263v0zM64 32z" />
    <glyph glyph-name="tick" unicode="&#xe66d;" 
d="M138 369q-11 -10 -10 -22t8 -22t17 -18q21 -20 118 -113t150 -143q26 -19 60 18l1 1l1 1l1 1l1 1l1 1l1 1l1 1l1 1l1 1l1 1l1 1l1 1l1 1l1 1l1 1h1l1 1l1 1l1 1l1 1l1 1l1 1l1 1l1 1l1 1l1 1l1 1l1 1l1 1l1 1l1 1l1 1l1 1l1 1l1 1l1 1l1 1l1 1h1l1 1l1 1l1 1l1 1l1 1l1 1
l1 1l1 1l1 1l1 1l1 1l1 1l1 1l1 1l1 1l1 1l1 1l1 1l1 1l1 1l1 1l1 1l1 1h1l1 1l1 1l1 1l1 1l1 1l1 1l1 1l1 1l1 1l1 1l1 1l1 1l1 1l1 1l1 1l1 1l1 1l1 1l1 1l1 1l1 1l1 1h1l1 1l1 1l1 1l1 1l1 1l1 1l1 1l1 1l1 1l1 1l1 1l1 1l1 1l1 1l1 1l1 1l1 1l1 1l1 1l1 1l1 1l1 1l1 1h1
l1 1l1 1l1 1l1 1l1 1l1 1l1 1l1 1l1 1l1 1l1 1l1 1l1 1l1 1l1 1l1 1l1 1l1 1l1 1l1 1l1 1l1 1h1l1 1l1 1l1 1l1 1l1 1l1 1l1 1l1 1l1 1l1 1l1 1l1 1l1 1l1 1l1 1l1 1l1 1l1 1l1 1l1 1l1 1l1 1l1 1h1l1 1l1 1l1 1l1 1l1 1l1 1l1 1l1 1l1 1l1 1l1 1l1 1l1 1l1 1l1 1l1 1l1 1
l1 1l1 1l1 1l1 1l1 1h1l1 1l1 1l1 1l1 1l1 1l1 1l1 1l1 1l1 1l1 1l1 1l1 1l1 1l1 1l1 1l1 1l1 1l1 1l1 1l1 1l1 1l1 1l1 1l1 1l1 1l1 1l1 1l1 1l1 1l1 1l1 1l1 1l1 1l1 1l1 1l1 1l1 1l1 1h1l1 1l1 1l1 1l1 1l1 1l1 1l1 1l1 1l1 1l1 1l1 1l1 1l1 1l1 1l1 1l1 1l1 1l1 1l1 1
l1 1l1 1l1 1h1l1 1l1 1l1 1l1 1l1 1l1 1l1 1l1 1l1 1l1 1l1 1l1 1l1 1l1 1l1 1l1 1l1 1l1 1l1 1l1 1l1 1l1 1l1 1h1l1 1l1 1l1 1l1 1l1 1l1 1l1 1l1 1l1 1l1 1l1 1l1 1l1 1l1 1l1 1l1 1l1 1l1 1l1 1l1 1l1 1l1 1h1l1 1l1 1l1 1l1 1l1 1l1 1l1 1l1 1l1 1l1 1l1 1l1 1l1 1l1 1
l1 1l1 1l1 1l1 1l1 1l1 1l1 1l1 1h1l1 1l1 1l1 1l1 1l1 1l1 1l1 1l1 1l1 1l1 1l1 1l1 1l1 1l1 1l1 1l1 1l1 1l1 1l1 1l1 1l1 1l1 1l1 1h1l1 1l1 1l1 1l1 1l1 1l1 1l1 1l1 1l1 1l1 1l1 1l1 1l1 1l1 1l1 1l1 1l1 1l1 1l1 1l1 1l1 1l1 1h1l1 1l1 1l1 1l1 1l1 1l1 1l1 1l1 1l1 1
l1 1l1 1l1 1l1 1l1 1l1 1l1 1l1 1l1 1l1 1l1 1l1 1l1 1l1 1h1l1 1l1 1l1 1l1 1l1 1l1 1l1 1l1 1l1 1l1 1l1 1l1 1l1 1l1 1l1 1l1 1l1 1l1 1l1 1l1 1l2 1q11 10 10 22t-7.5 22t-17.5 17q-4 4 -16 17t-22 18t-23 3q-10 -4 -19 -11t-19.5 -18t-16.5 -16q-47 -44 -99 -94.5
t-116 -111.5t-99 -94q-35 33 -104.5 99.5t-104.5 100.5q-10 11 -22.5 10t-23 -7.5t-18.5 -16.5q-5 -5 -15 -14.5t-15 -13.5z" />
    <glyph glyph-name="cross" unicode="&#xe66e;" 
d="M297 588q-14 0 -23 -10l-40 -38q-10 -10 -10 -24t10 -23l192 -193l-192 -193q-10 -9 -10 -22.5t10 -22.5l40 -40q10 -10 24 -10t23 10l190 190l192 -190q10 -10 24 -10t24 10l40 40q9 9 9 22.5t-9 22.5l-192 193l192 193q9 9 9 23t-9 24l-40 38q-10 10 -24 10t-24 -10
l-192 -190l-190 190q-9 10 -24 10z" />
    <glyph glyph-name="plus" unicode="&#xe66f;" 
d="M128 364h768v-128h-768v128zM576 684v-768h-128v768h128z" />
    <glyph glyph-name="minus" unicode="&#xe670;" 
d="M128 364h768v-128h-768v128z" />
    <glyph glyph-name="lanconnected" unicode="&#xe671;" 
d="M47 -165q-17 18 -17 42.5t17 41.5l189 189l-23 23l6 19q4 16 15.5 58.5t15.5 59.5l18 65q14 54 52 64t78 -29l182 -182q39 -39 29 -77.5t-64 -52.5l-65 -18q-53 -14 -118 -31l-19 -6l-23 23l-189 -189q-17 -17 -41.5 -17t-42.5 17v0zM626 232l-182 182q-39 39 -29 77.5
t64 52.5l65 18q17 4 59.5 15.5t58.5 15.5l19 6l23 -23l189 189q17 17 41.5 17t42 -17.5t17.5 -42t-17 -41.5l-189 -189l23 -23l-6 -19q-4 -16 -15.5 -58.5t-15.5 -59.5l-18 -65q-14 -54 -52 -64t-78 29z" />
    <glyph glyph-name="layout" unicode="&#xe672;" 
d="M477 -73h-201v0h201v0zM0 812v-1024h1024v1024h-1024zM64 748h896v-896h-896v896zM128 684v-192h768v192h-768zM128 428v-512h192v512h-192zM384 428v-512h512v512h-512z" />
    <glyph glyph-name="power" unicode="&#xe673;" 
d="M486 895q-30 1 -40.5 -23.5t-7.5 -55.5v-232t1 -232q3 -13 11.5 -22t20.5 -12t25 -4t25 1q28 -6 48.5 14t15.5 47v472q0 29 -24.5 40t-55.5 7h-19zM703 848v-161q58 -33 99.5 -87.5t58.5 -118t14.5 -129.5t-30.5 -128t-78 -106q-48 -50 -113.5 -76.5t-134 -25.5
t-133.5 22t-118.5 67t-82.5 108q-46 86 -39.5 177t53.5 173t121 132v153q-77 -27 -140 -81t-103 -121t-60 -146.5t-16.5 -157.5t33.5 -154.5t85 -136.5q50 -64 120.5 -106t146.5 -59.5t158 -12t155.5 32t138 77.5t105.5 120q51 76 70.5 165.5t5 177t-54 167t-108 142
t-153.5 93.5z" />
    <glyph glyph-name="keyboard" unicode="&#xe674;" 
d="M824 496h-1q-3 0 -6 -1q-41 -15 -86 -23.5t-79.5 -11.5t-79.5 -0.5t-69.5 5t-68.5 9t-58 8.5q-40 7 -78 4t-61 -21q-27 -19 -37 -59q-6 -23 -7 -55h-109q-8 0 -13.5 -7.5t-5.5 -18.5v-396q0 -10 5.5 -17.5t13.5 -7.5h858q8 0 13.5 7.5t5.5 17.5v396q0 11 -5.5 18.5
t-13.5 7.5h-716q0 28 6 47q7 28 24 41q28 21 116 10q13 -2 57.5 -8t69.5 -9t72 -5.5t83 0.5t84 12t92 26q6 5 6 13q0 13 -12 18v0zM739 308q8 0 13.5 -5t5.5 -12.5t-5.5 -13t-13.5 -5.5t-13.5 5.5t-5.5 13t5.5 12.5t13.5 5zM802.5 308q7.5 0 13 -5t5.5 -12.5t-5.5 -13
t-13 -5.5t-13 5.5t-5.5 13t5.5 12.5t13 5zM865.5 308q7.5 0 13 -5t5.5 -12.5t-5.5 -13t-13 -5.5t-13 5.5t-5.5 13t5.5 12.5t13 5zM522 225h48q8 0 8 -10v-142q0 -10 -8 -10h-146q-8 0 -8 10v43q0 10 8 10h90v89q0 10 8 10zM136 224h48q8 0 8 -10v-43q0 -10 -8 -10h-48
q-8 0 -8 10v43q0 10 8 10zM232 224h48q8 0 8 -10v-43q0 -10 -8 -10h-48q-8 0 -8 10v43q0 10 8 10zM328 224h48q8 0 8 -10v-43q0 -10 -8 -10h-48q-8 0 -8 10v43q0 10 8 10zM424 224h48q8 0 8 -10v-43q0 -10 -8 -10h-48q-8 0 -8 10v43q0 10 8 10zM648 224h48q8 0 8 -10v-43
q0 -10 -8 -10h-48q-8 0 -8 10v43q0 10 8 10zM745 224h48q7 0 7 -10v-43q0 -10 -7 -10h-48q-8 0 -8 10v43q0 10 8 10zM840 224h48q7 0 7 -10v-43q0 -10 -7 -10h-48q-8 0 -8 10v43q0 10 8 10zM136 126h48q8 0 8 -10v-43q0 -10 -8 -10h-48q-8 0 -8 10v43q0 10 8 10zM232 126h48
q8 0 8 -10v-43q0 -10 -8 -10h-48q-8 0 -8 10v43q0 10 8 10zM328 126h48q8 0 8 -10v-43q0 -10 -8 -10h-48q-8 0 -8 10v43q0 10 8 10zM648 126h48q8 0 8 -10v-43q0 -10 -8 -10h-48q-8 0 -8 10v43q0 10 8 10zM745 126h48q7 0 7 -10v-43q0 -10 -7 -10h-48q-8 0 -8 10v43
q0 10 8 10zM840 126h48q7 0 7 -10v-43q0 -10 -7 -10h-48q-8 0 -8 10v43q0 10 8 10zM136 33h48q8 0 8 -10v-44q0 -10 -8 -10h-48q-8 0 -8 10v44q0 10 8 10zM232 33h241q8 0 8 -10v-44q0 -10 -8 -10h-241q-8 0 -8 10v44q0 10 8 10zM520 33h48q8 0 8 -10v-44q0 -10 -8 -10h-48
q-7 0 -7 10v44q0 10 7 10zM648 33h48q8 0 8 -10v-44q0 -10 -8 -10h-48q-8 0 -8 10v44q0 10 8 10zM745 33h48q7 0 7 -10v-44q0 -10 -7 -10h-48q-8 0 -8 10v44q0 10 8 10zM840 33h48q7 0 7 -10v-44q0 -10 -7 -10h-48q-8 0 -8 10v44q0 10 8 10z" />
    <glyph glyph-name="sangforad" unicode="&#xe675;" 
d="M481 -40zM174 738q-46 0 -79 -33t-33 -79v-676q0 -46 33 -79t79 -33h676q46 0 79 33t33 79v676q0 46 -33 79t-79 33h-676zM198 682h157q11 0 18.5 -7.5t7.5 -18.5v-54q0 -10 -7.5 -17.5t-18.5 -7.5h-55l92 -93q8 -7 8 -18t-8 -18l-40 -40q-7 -8 -18 -8t-18 8l-93 92v-55
q0 -11 -7.5 -18.5t-17.5 -7.5h-54q-11 0 -18.5 7.5t-7.5 18.5v157v54q0 11 7.5 18.5t18.5 7.5h54zM669 682h211q11 0 18.5 -7.5t7.5 -18.5v-54v-157q0 -11 -7.5 -18.5t-18.5 -7.5h-54q-10 0 -17.5 7.5t-7.5 18.5v55l-93 -92q-7 -8 -18 -8t-18 8l-40 40q-8 7 -8 18t8 18
l92 93h-55q-11 0 -18.5 7.5t-7.5 17.5v54q0 11 7.5 18.5t18.5 7.5zM512 433q19 0 33 -13l99 -99q13 -14 13 -33t-13 -33l-99 -99q-14 -13 -33 -13t-33 13l-99 99q-13 14 -13 33t13 33l99 99q14 13 33 13zM334 175.5q11 0.5 18 -7.5l40 -40q8 -7 8 -18t-8 -18l-92 -93h55
q11 0 18.5 -7.5t7.5 -17.5v-54q0 -11 -7.5 -18.5t-18.5 -7.5h-211q-11 0 -18.5 7.5t-7.5 18.5v54v157q0 11 7.5 18.5t18.5 7.5h54q10 0 17.5 -7.5t7.5 -18.5v-55l93 92q7 7 18 7.5zM690 175.5q11 -0.5 18 -7.5l92 -92v55q0 11 8 18.5t18 7.5h54q11 0 18.5 -7.5t7.5 -18.5
v-157v-54q0 -11 -7.5 -18.5t-18.5 -7.5h-54h-157q-11 0 -18.5 7.5t-7.5 18.5v54q0 10 7.5 17.5t18.5 7.5h55l-92 93q-8 7 -8 18t8 18l40 40q7 8 18 7.5z" />
    <glyph glyph-name="sangforvdi" unicode="&#xe676;" 
d="M477 -73h-201v0h201v0zM136 748q-30 0 -51 -21t-21 -51v-574q0 -30 21 -51t51 -21h106v468q0 30 21 51t51 21h468v106q0 30 -21 51t-51 21h-574zM782 570v-468q0 -30 -21 -51t-51 -21h-468v-106q0 -30 21 -51t51 -21h574q30 0 51 21t21 51v574q0 30 -21 51t-51 21h-106z
M354 515q-24 0 -40.5 -16.5t-16.5 -40.5v-373h373q24 0 40.5 16.5t16.5 40.5v373h-373z" />
    <glyph glyph-name="sangforngfw" unicode="&#xe677;" horiz-adv-x="1026" 
d="M1 812v-149h286v149h-286zM367 812v-149h286v149h-286zM738 812v-149h287v149h-287zM1 588v-75h137v75h-137zM214 588v-75h273v75h-273zM555 588v-75h274v75h-274zM888 588v-75h137v75h-137zM55 441q-32 0 -45 -27.5t-9 -61.5q0 -28 -0.5 -157.5t1.5 -156.5q8 -52 88 -46
h880q33 0 46 27.5t9 61.5v157.5t-1 156.5q-8 52 -88 46h-881zM418 328q23 7 47 -8q22 -14 -2 -23q-1 0 -2 -1q-24 10 -48.5 10t-45 -15t-25.5 -40q-12 -41 9.5 -78t63.5 -32q28 -6 35 7.5t4 40.5q3 12 -2 15.5t-18.5 2.5t-17.5 -1q-11 2 -8 15q4 16 18 10q2 0 4 -1
q4 -1 27.5 0t24.5 -3v-98q-31 -9 -60 -10.5t-58.5 10.5t-42.5 41q-11 30 -10.5 62t20 59t52.5 33q16 4 35 4zM96 326h9.5h9t7.5 -0.5t8 -2.5t5.5 -5.5t4.5 -8.5q9 -14 43.5 -69t53.5 -83q-2 25 -2.5 52.5t0 63.5t0.5 53q34 8 26 -26v-178q-2 -1 -8.5 -1h-9.5t-8 1t-7.5 2.5
t-5.5 5t-4 9.5q-9 13 -44 68t-55 83q2 -25 2.5 -52.5t0 -64t0.5 -51.5q-18 -5 -23.5 3t-2.5 25v176zM534 326h115q5 -17 -3 -21.5t-26 -2.5h-58v-71h81q5 -17 -3 -21.5t-26 -2.5q-5 0 -28 1t-24 -3v-83q-17 -4 -24.5 2t-3.5 24v178zM663 326q36 7 36 -25q4 -16 13 -47.5
t15 -56.5t10 -48q3 27 10.5 56t18.5 66t15 55q18 2 27.5 -2t9.5 -20q2 -10 18.5 -67t22.5 -88q4 27 10.5 56t16 65.5t13.5 55.5q13 1 19 0.5t10 -6t-5 -17.5l-49 -181q-35 -7 -36 25q-4 12 -19.5 66t-22.5 83q-6 -27 -13.5 -56t-18 -64t-15.5 -54q-34 -8 -35 25zM1 -63v-149
h286v149h-286zM367 -63v-149h286v149h-286zM738 -63v-149h287v149h-287z" />
    <glyph glyph-name="sangforaf" unicode="&#xe678;" horiz-adv-x="1026" 
d="M1 812v-149h286v149h-286zM367 812v-149h286v149h-286zM738 812v-149h287v149h-287zM1 588v-75h137v75h-137zM214 588v-75h273v75h-273zM555 588v-75h274v75h-274zM888 588v-75h137v75h-137zM55 441q-32 0 -45 -27.5t-9 -61.5q0 -28 -0.5 -157.5t1.5 -156.5q8 -52 88 -46
h880q33 0 46 27.5t9 61.5v157.5t-1 156.5q-8 52 -88 46h-881zM455 331q27 8 56 -9q23 -13 2 -23q-3 -2 -7 -3q-27 10 -55.5 10.5t-53.5 -15.5t-31 -45q-15 -45 11.5 -86t74.5 -33q27 -6 39.5 5.5t6.5 36.5q3 18 -3 25.5t-23 3.5t-24 2t-3 23h86v-110q-138 -33 -185 35
q-14 22 -17 49.5t3.5 53t24.5 45.5t45 27q23 8 53 8zM653 330q18 2 27.5 -2t11.5 -20l88 -203q-3 0 -11 -0.5t-11.5 0t-9 2t-7.5 5.5t-3 11q-10 26 -21 51h-97l-28 -69q-3 0 -8 -0.5t-8.5 -0.5t-7.5 0.5t-5.5 1.5t-2.5 3t0.5 5.5t5.5 8.5zM75 328q5 -1 16.5 0.5t19 -0.5
t10.5 -12l119 -172q-2 47 -1 184q10 1 18.5 1t12 -6t0.5 -18v-200q-5 0 -17 -1t-19.5 1t-10.5 11l-120 173q2 -55 1 -184q-18 -3 -26 1.5t-3 21.5v200zM816 328h135q4 -17 -3.5 -23t-25.5 -2h-74v-79h96q4 -17 -3.5 -22.5t-25.5 -2.5h-67v-94q-2 0 -7.5 -0.5t-8.5 -0.5
t-7 0.5t-6 1.5t-3.5 3.5t-1.5 6t2 9.5v203zM669 299q-7 -20 -21.5 -57t-17.5 -43h77q-4 10 -13 30.5t-15 37t-10 32.5zM1 -63v-149h286v149h-286zM367 -63v-149h286v149h-286zM738 -63v-149h287v149h-287z" />
    <glyph glyph-name="sangforac" unicode="&#xe679;" 
d="M412 812q-169 -9 -316 -44v-250l88 -82l-88 -81v-253q75 -118 182.5 -199.5t233.5 -114.5q126 33 233.5 114.5t182.5 200.5v252l-88 81l88 82v249q-147 36 -316 45l-100 -92zM512 684q156 0 291 -36v-496q-53 -89 -128 -150t-163 -86q-88 25 -163 85.5t-128 149.5v497
q135 36 291 36zM662 492q-54 0 -89 -35.5t-35 -93.5q0 -55 31 -88t83 -33q40 0 67 14v30q-27 -16 -63 -16q-38 0 -62 25.5t-24 69.5q0 45 25.5 72t66.5 27q31 0 57 -14v33q-23 9 -57 9zM393 488l-92 -242h34l23 67h101l25 -67h34l-92 242h-33zM442 458h1q-4 -6 -6.5 -12.5
t-4 -11.5t-1.5 -12.5t-0.5 -11.5t1 -12t2 -11t3.5 -12.5t4 -11t4.5 -12t4.5 -11.5h-82q13 31 40 118h34z" />
    <glyph glyph-name="wrench" unicode="&#xe67a;" horiz-adv-x="1025" 
d="M568 734q-29 -25 -47 -60.5t-23.5 -75t-5 -75.5t7.5 -73q-44 -44 -217.5 -217t-266.5 -267q-20 -24 -15 -54t30 -48q9 -8 25 -25.5t30 -29.5t30 -18q11 -2 19 -3t18 3.5t16 8t14.5 11t14 13l13.5 13.5l13 13l443 444q48 -17 96.5 -16.5t94 21.5t81.5 52.5t58.5 76.5
t25.5 95q5 66 -9 64q-6 -1 -15 -15l-123 -123l-170 44l-46 171l144 144q-64 12 -127.5 -8t-108.5 -66z" />
    <glyph glyph-name="swap" unicode="&#xe67b;" 
d="M447 620l-319 -256h768v48.5t-1 48.5q-6 35 -62 31h-386v128zM128 236v-48.5t1 -48.5q6 -35 62 -31h386v-128l319 256h-768z" />
    <glyph glyph-name="enabled" unicode="&#xe67c;" horiz-adv-x="1026" 
d="M514 812q-70 2 -137.5 -16.5t-124 -55t-104.5 -85.5t-81 -110t-51 -125.5t-16 -135t25 -135.5q21 -79 69 -145.5t111.5 -112t141 -72.5t155.5 -30.5t157 18.5t144 70q69 44 118 109.5t74 139.5t28 156t-16.5 157.5t-64 144.5t-110.5 117q-67 53 -149.5 82t-168.5 29z
M514 716q66 2 129.5 -19t113.5 -60t90.5 -91.5t60.5 -113.5t23.5 -126t-20.5 -129q-20 -76 -71 -138t-119.5 -98.5t-145 -50.5t-154.5 3t-142 64q-83 52 -129.5 142.5t-50 186t36.5 188.5t120 152q113 90 258 90zM756 529l-304 -304l-180 181l-78 -78q227 -226 258 -258
l382 382z" />
    <glyph glyph-name="teangleleft" unicode="&#xe67d;" 
d="M128 300l768 448v-896z" />
    <glyph glyph-name="trangledown" unicode="&#xe67e;" 
d="M512 -84l-448 768h896z" />
    <glyph glyph-name="trangleright" unicode="&#xe67f;" 
d="M896 300l-768 -448v896z" />
    <glyph glyph-name="trangleup" unicode="&#xe680;" 
d="M512 684l448 -768h-896z" />
    <glyph glyph-name="mail1" unicode="&#xe681;" 
d="M82 620q-10 0 -21 -3l255 -255l45 -45l151 -151l151 151l45 45l255 255q-11 3 -21 3h-860zM11 577q-11 -20 -11 -39v-476q0 -6 1 -14l269 269zM1013 577l-259 -260l269 -269q1 8 1 14v476q0 19 -11 39zM316 272l-278 -278q22 -14 44 -14h860q22 0 44 14l-278 278
l-196 -197z" />
    <glyph glyph-name="mailop" unicode="&#xe682;" horiz-adv-x="1025" 
d="M507 755l-447 -325q3 -8 17 -21t17 -17l418 -418l451 451q-4 5 -12 11.5t-18.5 13.5t-15.5 11l-404 294l-3 1zM11 385q-8 -18 -10 -38.5t-1 -47.5t1 -40q0 -36 -0.5 -198t0.5 -198q2 -5 8.5 0.5t15.5 15.5t13 13l233 233zM1013 385l-259 -260l269 -269q2 26 1.5 152
t-0.5 152v99t-1 98q-2 13 -10 28zM316 80l-277 -277q16 -11 36 -13.5t47 -1t39 0.5q72 0 394 -0.5t393 0.5q27 1 31 12.5t-17 25.5q-127 126 -254 253l-196 -196z" />
    <glyph glyph-name="download" unicode="&#xe683;" 
d="M457 684q-38 1 -53 -30t-12 -71q-1 -81 -3 -163h-129q-2 -23 9.5 -40.5t36 -38.5t31.5 -29q12 -11 61 -58t77 -70q32 -18 62 -8.5t52 36.5q15 15 78 73.5t94 91.5q19 28 6.5 38.5t-41.5 4.5h-81q0 18 2 95.5t1 119.5q-3 18 -15 29.5t-27.5 15t-33 5t-33.5 -0.5h-82z
M136 172q-36 1 -57 -30t-15 -67q1 -13 -0.5 -40.5t1 -48.5t11.5 -38q15 -22 36.5 -28.5t58.5 -4.5t47 1h338.5h338.5q36 3 53 34t12 66q-1 13 0.5 44t-2.5 52.5t-19 38.5q-17 15 -39 19t-53 2.5t-44 -0.5h-158q-10 -8 -34.5 -34t-45.5 -39t-46 -13q-26 -1 -48 14.5t-44.5 39
t-37.5 32.5h-253zM664 92q22 1 36 -16t11.5 -39.5t-21.5 -32.5q-19 -14 -41 -5.5t-29.5 28t2.5 40.5q13 25 42 25zM824 92q22 1 36 -16t11.5 -39.5t-21.5 -32.5q-19 -14 -41 -5.5t-29.5 28t2.5 40.5q13 25 42 25z" />
    <glyph glyph-name="upload" unicode="&#xe684;" 
d="M520 684q-20 0 -36 -9.5t-37 -31.5t-27 -27q-12 -12 -63 -62t-78 -77q-16 -17 -14.5 -38t28.5 -13h98q-1 -20 -2.5 -97.5t-1.5 -119.5q1 -29 26 -45.5t54 -12.5h62.5t62.5 2q27 4 40.5 28.5t10.5 53.5l4 191h129q2 16 -5 31t-15 24t-23.5 24t-21.5 21q-13 13 -64.5 64
t-79.5 78q-21 16 -47 16zM136 182q-34 1 -55.5 -27t-16.5 -62q0 -6 -0.5 -62.5t3.5 -61.5q7 -28 33 -42.5t55 -10.5h370h370q32 3 50.5 31t14.5 61q0 5 0.5 60.5t-3.5 61.5q-7 28 -33 42t-55 10h-183q-4 -37 -34 -61.5t-67 -19.5q-14 0 -89 -0.5t-89 2.5q-21 0 -35.5 15.5
t-26 36.5t-18.5 27h-191zM664 99q21 1 35 -16t13 -38.5t-18 -34.5q-22 -20 -51 -5t-27 44q0 20 14 35t34 15zM824 99q21 1 35 -16t13 -38.5t-18 -34.5q-22 -20 -51 -5t-27 44q0 20 14 35t34 15z" />
    <glyph glyph-name="mailrep" unicode="&#xe685;" horiz-adv-x="1025" 
d="M238 684q-8 0 -18 -3l213 -214l38 -38l126 -127l126 127l38 38l212 214q-9 3 -17 3h-718zM178 647q-9 -16 -9 -32v-259l58 56q12 12 33 16v-135l135 136zM1015 647l-217 -218l225 -226q1 6 1 12v400q0 16 -9 32zM433 391l-111 -112q81 -4 153.5 -39t127.5 -94h353
q18 0 36 12l-231 233l-164 -165zM228 352q-15 -3 -24 -11l-190 -171q-14 -12 -14 -29.5t14 -29.5l190 -171q8 -8 24 -11v103q58 6 100 6t78.5 -6t69 -21.5t64 -37.5t70.5 -57q0 59 -12.5 108t-34 83t-52.5 60t-64 41.5t-72.5 25.5t-74.5 14t-72 4v100z" />
    <glyph glyph-name="alert" unicode="&#xe686;" horiz-adv-x="1025" 
d="M435 689l-417 -719q-17 -31 -18 -57t20.5 -43t61.5 -17q6 0 226.5 -0.5t407 -0.5t220.5 1q58 0 79 33.5t-9 87.5l-419 720q-31 55 -75.5 54t-76.5 -59zM517 499q30 1 49 -24t14 -55v-93.5t-1 -93.5q-4 -24 -25 -38t-46 -11.5t-40 22.5q-11 14 -13.5 31.5t-1 42t0.5 35.5
q0 10 -0.5 70.5t3.5 69.5q5 19 22.5 31.5t37.5 12.5zM517 130q25 1 43.5 -17.5t19.5 -42t-15 -43.5q-15 -20 -40.5 -22t-46 12.5t-23.5 39.5q-6 27 13.5 50.5t48.5 22.5z" />
    </font>
</defs>
</svg>
